<svg xmlns="http://www.w3.org/2000/svg" width="1504" height="704" viewBox="0 0 1504 704">
  <title>stripes</title>
  <line y2="704" style="fill: none"/>
  <line x1="16" x2="16" y2="704" style="fill: none"/>
  <line x1="32" x2="32" y2="704" style="fill: none"/>
  <line x1="48" x2="48" y2="704" style="fill: none"/>
  <line x1="64" x2="64" y2="704" style="fill: none"/>
  <line x1="80" x2="80" y2="704" style="fill: none"/>
  <line x1="96" x2="96" y2="704" style="fill: none"/>
  <line x1="112" x2="112" y2="704" style="fill: none"/>
  <line x1="128" x2="128" y2="704" style="fill: none"/>
  <line x1="144" x2="144" y2="704" style="fill: none"/>
  <line x1="160" x2="160" y2="704" style="fill: none"/>
  <line x1="176" x2="176" y2="704" style="fill: none"/>
  <line x1="192" x2="192" y2="704" style="fill: none"/>
  <line x1="208" x2="208" y2="704" style="fill: none"/>
  <line x1="224" x2="224" y2="704" style="fill: none"/>
  <line x1="240" x2="240" y2="704" style="fill: none"/>
  <line x1="256" x2="256" y2="704" style="fill: none"/>
  <line x1="272" x2="272" y2="704" style="fill: none"/>
  <line x1="288" x2="288" y2="704" style="fill: none"/>
  <line x1="304" x2="304" y2="704" style="fill: none"/>
  <line x1="320" x2="320" y2="704" style="fill: none"/>
  <line x1="336" x2="336" y2="704" style="fill: none"/>
  <line x1="352" x2="352" y2="704" style="fill: none"/>
  <line x1="368" x2="368" y2="704" style="fill: none"/>
  <line x1="384" x2="384" y2="704" style="fill: none"/>
  <line x1="400" x2="400" y2="704" style="fill: none"/>
  <line x1="416" x2="416" y2="704" style="fill: none"/>
  <line x1="432" x2="432" y2="704" style="fill: none"/>
  <line x1="448" x2="448" y2="704" style="fill: none"/>
  <line x1="464" x2="464" y2="704" style="fill: none"/>
  <line x1="480" x2="480" y2="704" style="fill: none"/>
  <line x1="496" x2="496" y2="704" style="fill: none"/>
  <line x1="512" x2="512" y2="704" style="fill: none"/>
  <line x1="528" x2="528" y2="704" style="fill: none"/>
  <line x1="544" x2="544" y2="704" style="fill: none"/>
  <line x1="560" x2="560" y2="704" style="fill: none"/>
  <line x1="576" x2="576" y2="704" style="fill: none"/>
  <line x1="592" x2="592" y2="704" style="fill: none"/>
  <line x1="608" x2="608" y2="704" style="fill: none"/>
  <line x1="624" x2="624" y2="704" style="fill: none"/>
  <line x1="640" x2="640" y2="704" style="fill: none"/>
  <line x1="656" x2="656" y2="704" style="fill: none"/>
  <line x1="672" x2="672" y2="704" style="fill: none"/>
  <line x1="688" x2="688" y2="704" style="fill: none"/>
  <line x1="704" x2="704" y2="704" style="fill: none"/>
  <line x1="720" x2="720" y2="704" style="fill: none"/>
  <line x1="736" x2="736" y2="704" style="fill: none"/>
  <line x1="752" x2="752" y2="704" style="fill: none"/>
  <line x1="768" x2="768" y2="704" style="fill: none"/>
  <line x1="784" x2="784" y2="704" style="fill: none"/>
  <line x1="800" x2="800" y2="704" style="fill: none"/>
  <line x1="816" x2="816" y2="704" style="fill: none"/>
  <line x1="832" x2="832" y2="704" style="fill: none"/>
  <line x1="848" x2="848" y2="704" style="fill: none"/>
  <line x1="864" x2="864" y2="704" style="fill: none"/>
  <line x1="880" x2="880" y2="704" style="fill: none"/>
  <line x1="896" x2="896" y2="704" style="fill: none"/>
  <line x1="912" x2="912" y2="704" style="fill: none"/>
  <line x1="928" x2="928" y2="704" style="fill: none"/>
  <line x1="944" x2="944" y2="704" style="fill: none"/>
  <line x1="960" x2="960" y2="704" style="fill: none"/>
  <line x1="976" x2="976" y2="704" style="fill: none"/>
  <line x1="992" x2="992" y2="704" style="fill: none"/>
  <line x1="1008" x2="1008" y2="704" style="fill: none"/>
  <line x1="1024" x2="1024" y2="704" style="fill: none"/>
  <line x1="1040" x2="1040" y2="704" style="fill: none"/>
  <line x1="1056" x2="1056" y2="704" style="fill: none"/>
  <line x1="1072" x2="1072" y2="704" style="fill: none"/>
  <line x1="1088" x2="1088" y2="704" style="fill: none"/>
  <line x1="1104" x2="1104" y2="704" style="fill: none"/>
  <line x1="1120" x2="1120" y2="704" style="fill: none"/>
  <line x1="1136" x2="1136" y2="704" style="fill: none"/>
  <line x1="1152" x2="1152" y2="704" style="fill: none"/>
  <line x1="1168" x2="1168" y2="704" style="fill: none"/>
  <line x1="1184" x2="1184" y2="704" style="fill: none"/>
  <line x1="1200" x2="1200" y2="704" style="fill: none"/>
  <line x1="1216" x2="1216" y2="704" style="fill: none"/>
  <line x1="1232" x2="1232" y2="704" style="fill: none"/>
  <line x1="1248" x2="1248" y2="704" style="fill: none"/>
  <line x1="1264" x2="1264" y2="704" style="fill: none"/>
  <line x1="1280" x2="1280" y2="704" style="fill: none"/>
  <line x1="1296" x2="1296" y2="704" style="fill: none"/>
  <line x1="1312" x2="1312" y2="704" style="fill: none"/>
  <line x1="1328" x2="1328" y2="704" style="fill: none"/>
  <line x1="1344" x2="1344" y2="704" style="fill: none"/>
  <line x1="1360" x2="1360" y2="704" style="fill: none"/>
  <line x1="1376" x2="1376" y2="704" style="fill: none"/>
  <line x1="1392" x2="1392" y2="704" style="fill: none"/>
  <line x1="1408" x2="1408" y2="704" style="fill: none"/>
  <line x1="1424" x2="1424" y2="704" style="fill: none"/>
  <line x1="1440" x2="1440" y2="704" style="fill: none"/>
  <line x1="1456" x2="1456" y2="704" style="fill: none"/>
  <line x1="1472" x2="1472" y2="704" style="fill: none"/>
  <line x1="1488" x2="1488" y2="704" style="fill: none"/>
  <line x1="1504" x2="1504" y2="704" style="fill: none"/>
</svg>
