<svg xmlns="http://www.w3.org/2000/svg" viewBox="0 0 379.069 103.515"><title>logo</title><path d="M307.146,27.246a3.51,3.51,0,0,0,3.393-.012l6.647-4.187a4.046,4.046,0,0,0,1.692-3.066V11.657c0-1.1-.765-1.526-1.7-.946l-6.632,4.107a3.545,3.545,0,0,1-3.4,0l-6.631-4.107c-.935-.58-1.7-.154-1.7.946v8.429a4.006,4.006,0,0,0,1.7,3.053Z" style="fill:#f75c94"/><path d="M307.146,51.946a3.551,3.551,0,0,0,3.4,0L337.24,35.461a4,4,0,0,0,1.7-3.051V24.086c0-1.1-.768-1.531-1.707-.958l-26.6,16.244a3.612,3.612,0,0,1-3.416.005L280.46,23.124c-.94-.571-1.709-.138-1.709.962v8.271a4,4,0,0,0,1.7,3.053Z" style="fill:#f75c94"/><path d="M306.815,64.474a3.545,3.545,0,0,0,3.4.01L357.3,35.509c.937-.576,1.7-.148,1.7.952v8.272a4,4,0,0,1-1.7,3.053L310.546,76.75a3.554,3.554,0,0,1-3.4,0L260.39,47.939a3.99,3.99,0,0,1-1.7-3.049V36.461c0-1.1.764-1.523,1.7-.941Z" style="fill:#f75c94"/><path d="M307.062,89.18a3.559,3.559,0,0,0,3.4,0l66.9-41.243c.937-.577,1.7-.149,1.7.951v8.324a4,4,0,0,1-1.7,3.052l-66.821,41.339a3.549,3.549,0,0,1-3.4,0L240.324,60.266a4,4,0,0,1-1.7-3.052V48.89c0-1.1.765-1.527,1.7-.949Z" style="fill:#f75c94"/><path d="M65.025,88.074a2.006,2.006,0,0,0,2-2V17.5a2.006,2.006,0,0,0-2-2H58.241a2.006,2.006,0,0,1-2-2V2.919a2.006,2.006,0,0,1,2-2H90.392a2.006,2.006,0,0,1,2,2V13.5a2.006,2.006,0,0,1-2,2H83.608a2.006,2.006,0,0,0-2,2V86.074a2.006,2.006,0,0,0,2,2h6.784a2.006,2.006,0,0,1,2,2v10.584a2.006,2.006,0,0,1-2,2H58.241a2.006,2.006,0,0,1-2-2V90.074a2.006,2.006,0,0,1,2-2Z" style="fill:#241d38"/><path d="M145.7,7.65A20.158,20.158,0,0,0,142.742,5a33.044,33.044,0,0,0-6.3-3.427,25.363,25.363,0,0,0-17.586,0,24.187,24.187,0,0,0-7.793,4.575,22.955,22.955,0,0,0-5.718,7.864c-1.431,3.145-1.961,8.874-1.961,8.874-.1,1.1-.184,2.892-.184,3.992V76.637c0,1.1.08,2.9.178,3.992,0,0,.536,5.968,1.967,9.018a28.06,28.06,0,0,0,4.343,6.126,26.259,26.259,0,0,0,9.168,6.17,25.378,25.378,0,0,0,17.586,0,24.477,24.477,0,0,0,7.935-4.719,22.7,22.7,0,0,0,5.577-7.577c1.429-3.05,1.965-9.018,1.965-9.018.1-1.095.179-2.892.179-3.992V48.611a2.006,2.006,0,0,0-2-2H127.935a2.006,2.006,0,0,0-2,2v8.868a2.006,2.006,0,0,0,2,2h7.581a2.006,2.006,0,0,1,2,2V76.637a30.568,30.568,0,0,1-.315,3.975s-.663,4.151-2.616,5.818a10.861,10.861,0,0,1-13.869,0c-1.954-1.667-2.616-5.818-2.616-5.818a30.567,30.567,0,0,1-.314-3.975V26.878A30.567,30.567,0,0,1,118.1,22.9s.662-4.148,2.616-5.817a10.861,10.861,0,0,1,13.869,0c1.953,1.669,2.615,5.817,2.615,5.817a30.4,30.4,0,0,1,.316,3.975v1.147a2.006,2.006,0,0,0,2,2H150.1a2.006,2.006,0,0,0,2-2V26.878c0-1.1-.083-2.9-.184-3.992,0,0-.531-5.729-1.96-8.874A31.1,31.1,0,0,0,145.7,7.65Z" style="fill:#241d38"/><path d="M211.008,30.025a2.006,2.006,0,0,0,2-2V26.878c0-1.1-.083-2.9-.185-3.992,0,0-.531-5.729-1.96-8.874a31.074,31.074,0,0,0-4.256-6.362A20.115,20.115,0,0,0,203.649,5a33.057,33.057,0,0,0-6.3-3.427,25.363,25.363,0,0,0-17.586,0,24.187,24.187,0,0,0-7.793,4.575,22.957,22.957,0,0,0-5.719,7.864c-1.43,3.145-1.96,8.874-1.96,8.874-.1,1.1-.185,2.892-.185,3.992V76.637c0,1.1.081,2.9.179,3.992,0,0,.536,5.968,1.966,9.018a28.1,28.1,0,0,0,4.343,6.126,26.282,26.282,0,0,0,9.169,6.17,25.378,25.378,0,0,0,17.586,0,24.5,24.5,0,0,0,7.935-4.719,22.682,22.682,0,0,0,5.576-7.577c1.429-3.05,1.966-9.018,1.966-9.018.1-1.095.179-2.892.179-3.992V48.611a2.006,2.006,0,0,0-2-2H188.843a2.006,2.006,0,0,0-2,2v8.868a2.006,2.006,0,0,0,2,2h7.581a2.006,2.006,0,0,1,2,2V76.637a30.4,30.4,0,0,1-.316,3.975s-.663,4.151-2.615,5.818a10.861,10.861,0,0,1-13.869,0c-1.955-1.667-2.616-5.818-2.616-5.818a30.568,30.568,0,0,1-.315-3.975V26.878a30.568,30.568,0,0,1,.315-3.975s.661-4.148,2.616-5.817a10.861,10.861,0,0,1,13.869,0c1.952,1.669,2.615,5.817,2.615,5.817a30.4,30.4,0,0,1,.316,3.975v1.147a2.006,2.006,0,0,0,2,2Z" style="fill:#241d38"/><path d="M2.239,2.919a2.006,2.006,0,0,1,2-2h38.7a1.2,1.2,0,0,1,1.182,1.825L22.961,49.963a1.2,1.2,0,0,0,1.182,1.825H36.549a1.2,1.2,0,0,1,1.177,1.824L22.708,86.91a1.19,1.19,0,0,0,1.178,1.815l16.16-.068a2,2,0,0,1,2,1.992v10.009a2.006,2.006,0,0,1-2,2H1.342A1.2,1.2,0,0,1,.16,100.833L21.325,53.614a1.2,1.2,0,0,0-1.182-1.826H7.736a1.2,1.2,0,0,1-1.177-1.823l15.018-33.3A1.19,1.19,0,0,0,20.4,14.852l-16.16.067a2,2,0,0,1-2-1.991Z" style="fill:#f75c94"/></svg>