<svg xmlns="http://www.w3.org/2000/svg" viewBox="0 0 95.279 13.612"><title>archipelago</title><path d="M7.718,7.938a3.128,3.128,0,0,0,.456-1.96,1.49,1.49,0,0,1,.22-.941,1.622,1.622,0,0,1,2.186-.528,1.52,1.52,0,0,1,.544,2.122,1.568,1.568,0,0,1-.753.63A3.272,3.272,0,0,0,8.8,8.571c-.035.054-.069.109-.1.165A3.126,3.126,0,0,0,8.241,10.7a1.5,1.5,0,0,1-.219.942,1.622,1.622,0,0,1-2.187.527,1.519,1.519,0,0,1-.544-2.121,1.58,1.58,0,0,1,.753-.631A3.265,3.265,0,0,0,7.614,8.1C7.649,8.049,7.684,7.993,7.718,7.938ZM2.654,7.93A3.122,3.122,0,0,0,3.11,5.97a1.5,1.5,0,0,1,.22-.941A1.623,1.623,0,0,1,5.517,4.5a1.522,1.522,0,0,1,.544,2.122,1.575,1.575,0,0,1-.754.63,3.28,3.28,0,0,0-1.57,1.309c-.035.055-.069.11-.1.165a3.122,3.122,0,0,0-.456,1.96,1.5,1.5,0,0,1-.22.941,1.622,1.622,0,0,1-2.187.528,1.522,1.522,0,0,1-.544-2.122A1.575,1.575,0,0,1,.981,9.4,3.265,3.265,0,0,0,2.551,8.1C2.586,8.04,2.62,7.985,2.654,7.93ZM12.877,9.469a1.4,1.4,0,1,1-1.441,1.4A1.421,1.421,0,0,1,12.877,9.469ZM7.24,0A1.421,1.421,0,0,1,8.682,1.4,1.442,1.442,0,0,1,5.8,1.4,1.421,1.421,0,0,1,7.24,0Z" transform="translate(0)" style="fill:#fff"/><path d="M25.432,11.013H23.419l3.068-8.9h2.421l3.063,8.9H29.958l-.66-2.03H26.092Zm1.137-3.5h2.256L27.732,4.148h-.07Z" transform="translate(0)" style="fill:#fff"/><path d="M33,11.013V4.339H34.8V5.5h.069a1.742,1.742,0,0,1,.612-.941,1.614,1.614,0,0,1,.989-.319,2.531,2.531,0,0,1,.582.065V5.951a1.947,1.947,0,0,0-.36-.072,3.664,3.664,0,0,0-.421-.028,1.4,1.4,0,0,0-1.013.385,1.321,1.321,0,0,0-.4,1v3.776Z" transform="translate(0)" style="fill:#fff"/><path d="M40.7,11.143a3.385,3.385,0,0,1-1.759-.437,2.907,2.907,0,0,1-1.128-1.214A3.919,3.919,0,0,1,37.415,7.7a3.91,3.91,0,0,1,.4-1.8,2.938,2.938,0,0,1,1.13-1.212,3.351,3.351,0,0,1,1.745-.437,3.486,3.486,0,0,1,1.529.317,2.543,2.543,0,0,1,1.037.891,2.63,2.63,0,0,1,.418,1.347H41.927A1.363,1.363,0,0,0,41.539,6a1.13,1.13,0,0,0-.822-.306,1.232,1.232,0,0,0-1.033.517,2.392,2.392,0,0,0-.39,1.464,2.445,2.445,0,0,0,.388,1.48,1.225,1.225,0,0,0,1.035.523,1.162,1.162,0,0,0,.8-.289,1.327,1.327,0,0,0,.408-.823h1.744a2.744,2.744,0,0,1-.414,1.347,2.51,2.51,0,0,1-1.021.906A3.423,3.423,0,0,1,40.7,11.143Z" transform="translate(0)" style="fill:#fff"/><path d="M46.709,7.155v3.858H44.86v-8.9h1.8v3.4h.079a1.924,1.924,0,0,1,.731-.927,2.469,2.469,0,0,1,2.935.332,2.558,2.558,0,0,1,.629,1.843v4.249H49.182V7.094a1.358,1.358,0,0,0-.311-.961,1.133,1.133,0,0,0-.879-.343,1.246,1.246,0,0,0-.921.359A1.373,1.373,0,0,0,46.709,7.155Z" transform="translate(0)" style="fill:#fff"/><path d="M53.416,3.478a.994.994,0,0,1-.7-.276.889.889,0,0,1,0-1.323,1.045,1.045,0,0,1,1.411,0,.891.891,0,0,1,0,1.323A1,1,0,0,1,53.416,3.478Zm-.929,7.535V4.338h1.849v6.675Z" transform="translate(0)" style="fill:#fff"/><path d="M55.811,13.516V4.339h1.822V5.46h.082a2.581,2.581,0,0,1,.356-.552,1.852,1.852,0,0,1,.607-.467,2.073,2.073,0,0,1,.933-.189,2.5,2.5,0,0,1,1.345.38,2.682,2.682,0,0,1,.983,1.143,4.361,4.361,0,0,1,.371,1.91,4.415,4.415,0,0,1-.36,1.884,2.694,2.694,0,0,1-.972,1.16,2.479,2.479,0,0,1-1.371.393,2.112,2.112,0,0,1-.913-.178,1.859,1.859,0,0,1-.612-.45,2.328,2.328,0,0,1-.366-.55h-.057v3.572Zm1.809-5.84a2.507,2.507,0,0,0,.367,1.432A1.26,1.26,0,0,0,60.063,9.1a2.551,2.551,0,0,0,.36-1.423,2.52,2.52,0,0,0-.358-1.41,1.279,1.279,0,0,0-2.08-.013A2.465,2.465,0,0,0,57.62,7.676Z" transform="translate(0)" style="fill:#fff"/><path d="M66.575,11.144a3.526,3.526,0,0,1-1.766-.42,2.824,2.824,0,0,1-1.141-1.19,3.927,3.927,0,0,1-.4-1.827,3.91,3.91,0,0,1,.4-1.808,2.937,2.937,0,0,1,1.126-1.212A3.258,3.258,0,0,1,66.5,4.252a3.361,3.361,0,0,1,1.59.374,2.72,2.72,0,0,1,1.126,1.128,3.861,3.861,0,0,1,.417,1.888V8.15H65.1v0A1.642,1.642,0,0,0,65.5,9.332a1.445,1.445,0,0,0,1.1.43,1.582,1.582,0,0,0,.8-.2,1.061,1.061,0,0,0,.477-.578L69.6,9.1a2.347,2.347,0,0,1-.989,1.486A3.469,3.469,0,0,1,66.575,11.144ZM65.1,7h2.8a1.361,1.361,0,0,0-.382-.982,1.308,1.308,0,0,0-.98-.387,1.358,1.358,0,0,0-1.011.4A1.442,1.442,0,0,0,65.1,7Z" transform="translate(0)" style="fill:#fff"/><path d="M72.688,2.114v8.9H70.84v-8.9Z" transform="translate(0)" style="fill:#fff"/><path d="M76.063,11.14a2.466,2.466,0,0,1-1.583-.5,1.787,1.787,0,0,1-.629-1.491A1.792,1.792,0,0,1,74.2,7.976a2.012,2.012,0,0,1,.922-.623,5.209,5.209,0,0,1,1.23-.259,9.538,9.538,0,0,0,1.24-.182q.374-.1.374-.418V6.468a.8.8,0,0,0-.258-.638,1.073,1.073,0,0,0-.731-.226,1.307,1.307,0,0,0-.794.217,1.022,1.022,0,0,0-.391.552l-1.709-.139a2.278,2.278,0,0,1,.948-1.447,3.315,3.315,0,0,1,1.954-.535,4.051,4.051,0,0,1,1.389.235,2.3,2.3,0,0,1,1.043.732,2.009,2.009,0,0,1,.4,1.293v4.5H78.063v-.925h-.052a1.92,1.92,0,0,1-.727.758A2.314,2.314,0,0,1,76.063,11.14Zm.53-1.278a1.428,1.428,0,0,0,1-.354,1.137,1.137,0,0,0,.391-.88V7.92a1.1,1.1,0,0,1-.337.13c-.151.037-.313.07-.485.1s-.327.052-.463.072a1.843,1.843,0,0,0-.783.274.677.677,0,0,0-.3.595.662.662,0,0,0,.276.578A1.176,1.176,0,0,0,76.593,9.862Z" transform="translate(0)" style="fill:#fff"/><path d="M84.254,13.612a3.666,3.666,0,0,1-2.112-.531,2.1,2.1,0,0,1-.933-1.286l1.709-.23a1.156,1.156,0,0,0,.441.493,1.657,1.657,0,0,0,.939.224,1.636,1.636,0,0,0,1-.287,1.088,1.088,0,0,0,.393-.943V9.831h-.078a1.9,1.9,0,0,1-.642.75,2.094,2.094,0,0,1-1.258.337,2.7,2.7,0,0,1-1.365-.352,2.483,2.483,0,0,1-.976-1.073,4.076,4.076,0,0,1-.362-1.83,4.29,4.29,0,0,1,.371-1.894,2.679,2.679,0,0,1,.985-1.137,2.505,2.505,0,0,1,1.343-.38,2.082,2.082,0,0,1,.937.189,1.918,1.918,0,0,1,.612.467,2.362,2.362,0,0,1,.355.552h.07V4.339h1.834v6.74a2.275,2.275,0,0,1-.418,1.394,2.543,2.543,0,0,1-1.152.852A4.614,4.614,0,0,1,84.254,13.612Zm.04-4.085a1.209,1.209,0,0,0,1.034-.5A2.276,2.276,0,0,0,85.7,7.654a2.426,2.426,0,0,0-.364-1.4,1.187,1.187,0,0,0-1.037-.526,1.173,1.173,0,0,0-1.044.539,2.47,2.47,0,0,0-.358,1.39,2.313,2.313,0,0,0,.36,1.369A1.2,1.2,0,0,0,84.294,9.527Z" transform="translate(0)" style="fill:#fff"/><path d="M92,11.143a3.385,3.385,0,0,1-1.746-.432A2.927,2.927,0,0,1,89.118,9.5a3.887,3.887,0,0,1-.4-1.8,3.9,3.9,0,0,1,.4-1.809,2.915,2.915,0,0,1,1.135-1.208,3.737,3.737,0,0,1,3.492,0A2.921,2.921,0,0,1,94.88,5.892a3.9,3.9,0,0,1,.4,1.809,3.887,3.887,0,0,1-.4,1.8,2.921,2.921,0,0,1-1.135,1.208A3.385,3.385,0,0,1,92,11.143Zm.008-1.434a1.144,1.144,0,0,0,1.039-.574A2.71,2.71,0,0,0,93.4,7.688a2.724,2.724,0,0,0-.354-1.449,1.143,1.143,0,0,0-1.039-.575,1.16,1.16,0,0,0-1.054.575A2.715,2.715,0,0,0,90.6,7.688a2.7,2.7,0,0,0,.355,1.447A1.161,1.161,0,0,0,92.007,9.709Z" transform="translate(0)" style="fill:#fff"/></svg>