<?xml version="1.0" encoding="utf-8"?>
<!-- Generator: Adobe Illustrator 22.0.1, SVG Export Plug-In . SVG Version: 6.00 Build 0)  -->
<svg version="1.1" xmlns="http://www.w3.org/2000/svg" xmlns:xlink="http://www.w3.org/1999/xlink" x="0px" y="0px"
	 viewBox="0 0 300 300" style="enable-background:new 0 0 300 300;" xml:space="preserve">
<style type="text/css">
	.st0{fill:#000221;}
</style>
<g id="Layer_2">
</g>
<g id="Layer_1">
	<path class="st0" d="M-735.9,581.3h9.7c4.2,0,7.7,3.5,7.7,7.7h12c0-10.4-8.1-18.9-18.5-19.7v-10h-12v10
		c-10.4,0.8-18.5,9.3-18.5,19.7c0,10.8,8.9,19.7,19.7,19.7h9.7c4.2,0,7.7,3.5,7.7,7.7c0,4.2-3.5,7.7-7.7,7.7h-9.7
		c-4.2,0-7.7-3.5-7.7-7.7h-12c0,10.4,8.1,18.9,18.5,19.7v10h12v-10c10.4-0.8,18.5-9.3,18.5-19.7c0-10.8-8.9-19.7-19.7-19.7h-9.7
		c-4.2,0-7.7-3.5-7.7-7.7S-740.1,581.3-735.9,581.3z"/>
	<path class="st0" d="M-52.5,78.5v-24l767.2,0c27.7,0,50.2,22.5,50.3,50.3v460.5c0,27.7-22.5,50.2-50.3,50.3H-614.6l21.5,21.5
		c1.4,1.4,1.4,3.7,0,5.1c0,0,0,0,0,0L-605,654c-1.4,1.4-3.7,1.4-5.1,0c0,0,0,0,0,0L-658,606c-1.4-1.4-1.4-3.7,0-5.1l47.9-47.9
		c1.4-1.4,3.7-1.4,5.1,0c0,0,0,0,0,0l11.9,11.9c1.4,1.4,1.4,3.7,0,5.1c0,0,0,0,0,0l-21.5,21.5H714.7c14.5,0,26.2-11.8,26.3-26.3
		V104.8c0-14.5-11.8-26.2-26.3-26.3h-1.2H-52.5z"/>
	<path class="st0" d="M-436.3-474.7v-84.7l-21.5,21.5c-1.4,1.4-3.7,1.4-5.1,0c0,0,0,0,0,0l-11.9-11.9c-1.4-1.4-1.4-3.7,0-5.1
		c0,0,0,0,0,0l47.9-47.9c1.4-1.4,3.7-1.4,5.1,0l47.9,47.9c1.4,1.4,1.4,3.7,0,5.1c0,0,0,0,0,0l-11.9,11.9c-1.4,1.4-3.7,1.4-5.1,0
		c0,0,0,0,0,0l-21.5-21.5v84.7"/>
</g>
</svg>
