<?xml version="1.0" encoding="utf-8"?>
<!-- Generator: Adobe Illustrator 24.1.1, SVG Export Plug-In . SVG Version: 6.00 Build 0)  -->
<svg version="1.1" id="Layer_1" xmlns="http://www.w3.org/2000/svg" xmlns:xlink="http://www.w3.org/1999/xlink" x="0px" y="0px"
	 viewBox="0 0 1031.5 154.7" style="enable-background:new 0 0 1031.5 154.7;" xml:space="preserve">
<style type="text/css">
	.st0{fill:#FFFFFF;}
</style>
<g>
	<path class="st0" d="M84.5,1.5h-27L0.6,150.1L0,151.7h26l11.7-31.1H103l11.4,30.3l0.3,0.8H142L84.8,2.3L84.5,1.5z M46.4,97.6
		l23.9-63.1l23.9,63.1H46.4z"/>
	<path class="st0" d="M682.5,91c0,23.9-14.1,39.4-36,39.4c-22.3,0-36.1-15.1-36.1-39.4V2.1H584v91c0,38,24,61.6,62.6,61.6
		c19.2,0,35.2-6.3,46.3-18.1c10.2-10.9,15.8-26.3,15.8-43.5v-91h-26.2L682.5,91L682.5,91z"/>
	<polygon class="st0" points="764.9,84.6 817.2,84.6 817.2,61.4 764.9,61.4 764.9,25.2 846.5,25.2 846.5,2.1 738.3,2.1 738.3,151.7 
		853.7,151.7 853.7,128 764.9,128 	"/>
	<polygon class="st0" points="199,117.6 156.8,2.9 156.5,2.1 127.8,2.1 184.8,151.3 185.1,152.1 211.8,152.1 266.9,3.7 267.5,2.1 
		241.2,2.1 	"/>
	<polygon class="st0" points="526.1,101.4 460.8,2.7 460.4,2.1 430.1,2.1 430.1,151.7 455,151.7 455,41.4 529.8,152 530.2,152.6 
		550.5,152.6 550.5,2.1 526.1,2.1 	"/>
	<polygon class="st0" points="317.4,84.6 369.7,84.6 369.7,61.4 317.4,61.4 317.4,25.2 398.9,25.2 398.9,2.1 290.8,2.1 290.8,151.7 
		405.2,151.7 405.2,128 317.4,128 	"/>
	<path class="st0" d="M1007.6,75.8l-2.3-0.8l2.3-0.8c5-1.8,21.3-9.6,21.3-33.1c0-25.4-18.3-41.1-47.8-41.1h-5.4
		c-29.4,0-47.6,15.8-47.6,41.1c0,23.7,16.3,31.3,21.3,33.1l2.4,0.8l-2.4,0.8c-11,3.5-23.9,15.2-23.9,36.3
		c0,25.9,19.6,42.6,49.8,42.6h5.6c30.8,0,50.6-16.7,50.6-42.6C1031.5,89.7,1016.5,78.8,1007.6,75.8z M976.5,21.5h4
		c14.1,0,23.6,8.7,23.6,21.7s-9.5,21.7-23.6,21.7h-4c-14.1,0-23.6-8.7-23.6-21.7C952.9,30.3,962.4,21.5,976.5,21.5z M980.9,133.2
		h-4.8c-15.1,0-25.2-9.4-25.2-23.4c0-14.1,10.1-23.6,25.2-23.6h4.8c15.3,0,25.2,9.3,25.2,23.6C1006.1,123.7,996,133.2,980.9,133.2z"
		/>
</g>
</svg>
