<svg height='300px' width='300px'  fill="#e05f84" xmlns="http://www.w3.org/2000/svg" xmlns:xlink="http://www.w3.org/1999/xlink" version="1.1" x="0px" y="0px" viewBox="0 0 512 512" style="enable-background:new 0 0 512 512;" xml:space="preserve"><g><g><g><g><path d="M296,406H136c-5.523,0-10-4.478-10-10v-90c0-5.522,4.477-10,10-10h160c5.522,0,10,4.478,10,10v90      C306,401.522,301.522,406,296,406z M146,386h140v-70H146V386z"></path></g><g><path d="M196,496h-40c-5.523,0-10-4.478-10-10v-90c0-5.522,4.477-10,10-10h40c5.523,0,10,4.478,10,10v90      C206,491.522,201.523,496,196,496z M166,476h20v-70h-20V476z"></path></g><g><g><path d="M176,496H26c-5.523,0-10-4.478-10-10s4.477-10,10-10h150c5.523,0,10,4.478,10,10S181.523,496,176,496z"></path></g><g><path d="M326,486c0-5.521,4.479-10,10-10l0,0c5.52,0,10,4.479,10,10l0,0c0,5.52-4.48,10-10,10l0,0       C330.479,496,326,491.52,326,486z M246,486c0-5.521,4.48-10,10-10l0,0c5.52,0,10,4.479,10,10l0,0c0,5.52-4.48,10-10,10l0,0       C250.48,496,246,491.52,246,486z"></path></g><g><path d="M486,496H336c-5.522,0-10-4.478-10-10s4.478-10,10-10h150c5.522,0,10,4.478,10,10S491.522,496,486,496z"></path></g></g><g><path d="M446,246H336c-5.522,0-10-4.477-10-10V126c0-5.523,4.478-10,10-10h110c5.522,0,10,4.477,10,10v110      C456,241.523,451.522,246,446,246z M346,226h90v-90h-90V226z"></path></g><g><path d="M446,366H336c-5.522,0-10-4.478-10-10V236c0-5.523,4.478-10,10-10h110c5.522,0,10,4.477,10,10v120      C456,361.522,451.522,366,446,366z M346,346h90V246h-90V346z"></path></g><g><path d="M296,316H186c-5.523,0-10-4.478-10-10V26c0-5.523,4.477-10,10-10h160c5.522,0,10,4.477,10,10v60c0,5.523-4.478,10-10,10      h-40v210C306,311.522,301.522,316,296,316z M196,296h90V86c0-5.523,4.478-10,10-10h40V36H196V296z"></path></g><g><path d="M446,336H336c-5.522,0-10-4.478-10-10s4.478-10,10-10h110c5.522,0,10,4.478,10,10S451.522,336,446,336z"></path></g><g><path d="M446,306H336c-5.522,0-10-4.478-10-10s4.478-10,10-10h110c5.522,0,10,4.478,10,10S451.522,306,446,306z"></path></g><g><path d="M446,276H336c-5.522,0-10-4.478-10-10s4.478-10,10-10h110c5.522,0,10,4.478,10,10S451.522,276,446,276z"></path></g><g><path d="M236,316h-50c-5.523,0-10-4.478-10-10V86c0-5.523,4.477-10,10-10h50c5.523,0,10,4.477,10,10v220      C246,311.522,241.523,316,236,316z M196,296h30V96h-30V296z"></path></g><g><path d="M296,126H186c-5.523,0-10-4.477-10-10s4.477-10,10-10h110c5.522,0,10,4.477,10,10S301.522,126,296,126z"></path></g><g><path d="M296,156H186c-5.523,0-10-4.477-10-10s4.477-10,10-10h110c5.522,0,10,4.477,10,10S301.522,156,296,156z"></path></g><g><path d="M296,186H186c-5.523,0-10-4.477-10-10s4.477-10,10-10h110c5.522,0,10,4.477,10,10S301.522,186,296,186z"></path></g><g><path d="M296,216H186c-5.523,0-10-4.477-10-10s4.477-10,10-10h110c5.522,0,10,4.477,10,10S301.522,216,296,216z"></path></g><g><path d="M296,246H186c-5.523,0-10-4.477-10-10s4.477-10,10-10h110c5.522,0,10,4.477,10,10S301.522,246,296,246z"></path></g><g><path d="M296,276H186c-5.523,0-10-4.478-10-10s4.477-10,10-10h110c5.522,0,10,4.478,10,10S301.522,276,296,276z"></path></g><g><g><path d="M486,246c-5.522,0-10-4.477-10-10V96H306v140c0,5.523-4.478,10-10,10s-10-4.477-10-10V86c0-5.523,4.478-10,10-10h190       c5.522,0,10,4.477,10,10v150C496,241.523,491.522,246,486,246z"></path></g><g><path d="M286,246c0-0.86,0.109-1.7,0.31-2.5l0,0c-0.2-0.8-0.31-1.64-0.31-2.5l0,0c0-5.52,4.479-10,10-10l0,0       c5.52,0,10,4.48,10,10l0,0c0,0.86-0.11,1.7-0.311,2.5l0,0c0.2,0.8,0.311,1.64,0.311,2.5l0,0c0,5.52-4.48,10-10,10l0,0       C290.479,256,286,251.52,286,246z"></path></g><g><path d="M486,496h-50c-5.522,0-10-4.478-10-10v-80H296c-5.522,0-10-4.478-10-10V246c0-5.523,4.478-10,10-10s10,4.477,10,10v140       h130c5.522,0,10,4.478,10,10v80h30V336c0-5.522,4.478-10,10-10s10,4.478,10,10v150C496,491.522,491.522,496,486,496z"></path></g><g><path d="M476,286c0-5.521,4.479-10,10-10l0,0c5.52,0,10,4.479,10,10l0,0c0,5.52-4.48,10-10,10l0,0       C480.479,296,476,291.52,476,286z M476,236c0-5.52,4.479-10,10-10l0,0c5.52,0,10,4.48,10,10l0,0c0,5.52-4.48,10-10,10l0,0       C480.479,246,476,241.52,476,236z"></path></g></g><g><path d="M436,436H196c-5.523,0-10-4.478-10-10s4.477-10,10-10h240c5.522,0,10,4.478,10,10S441.522,436,436,436z"></path></g><g><path d="M436,466H196c-5.523,0-10-4.478-10-10s4.477-10,10-10h240c5.522,0,10,4.478,10,10S441.522,466,436,466z"></path></g><g><path d="M66,496c-5.523,0-10-4.478-10-10V376c0-3.147,1.482-6.111,4-8l40-30c4.419-3.313,10.687-2.418,14,2      c3.314,4.418,2.418,10.687-2,14l-36,27v105C76,491.522,71.523,496,66,496z"></path></g><g><path d="M65.992,416.001c-2.088,0-4.193-0.651-5.992-2.001l-40-30c-4.418-3.313-5.313-9.582-2-14c3.313-4.417,9.582-5.314,14-2      l40,30c4.418,3.313,5.313,9.582,2,14C72.036,414.619,69.032,416.001,65.992,416.001z"></path></g><g><path d="M65.999,386.003c-4.187,0-8.088-2.65-9.485-6.841l-10-30c-1.747-5.239,1.085-10.902,6.325-12.649      c5.239-1.745,10.902,1.086,12.649,6.325l10,30c1.747,5.239-1.085,10.902-6.325,12.649      C68.113,385.837,67.047,386.003,65.999,386.003z"></path></g><g><path d="M65.992,446.001c-2.088,0-4.193-0.651-5.992-2.001c-4.418-3.313-5.313-9.582-2-14l30-40c3.313-4.418,9.582-5.315,14-2      c4.418,3.313,5.313,9.582,2,14l-30,40C72.036,444.619,69.032,446.001,65.992,446.001z"></path></g><g><path d="M131,146H81c-12.073,0-22.175-8.603-24.498-20H51c-13.785,0-25-11.215-25-25s11.215-25,25-25h30      c12.073,0,22.175,8.603,24.498,20H131c13.785,0,25,11.215,25,25S144.785,146,131,146z M51,96c-2.757,0-5,2.243-5,5s2.243,5,5,5      h15.872c3.247,0,6.292,1.576,8.166,4.228c1.874,2.651,2.344,6.047,1.261,9.108C76.101,119.896,76,120.456,76,121      c0,2.757,2.243,5,5,5h50c2.757,0,5-2.243,5-5s-2.243-5-5-5H95.128c-3.247,0-6.292-1.576-8.166-4.228      c-1.874-2.651-2.344-6.047-1.261-9.108C85.899,102.104,86,101.544,86,101c0-2.757-2.243-5-5-5H51z"></path></g><g><path d="M406,246c-5.522,0-10-4.477-10-10V126c0-5.523,4.478-10,10-10s10,4.477,10,10v110C416,241.523,411.522,246,406,246z"></path></g><g><path d="M376,246c-5.522,0-10-4.477-10-10V126c0-5.523,4.478-10,10-10s10,4.477,10,10v110C386,241.523,381.522,246,376,246z"></path></g></g></g></g></svg>