<svg style="width:100%; height:100%; transform: scale(.8);" viewBox="0 0 193 62" preserveAspectRatio="xMidYMid" version="1.1" xmlns="http://www.w3.org/2000/svg" xmlns:xlink="http://www.w3.org/1999/xlink">
    <g id="Components" stroke="none" stroke-width="1" fill="none" fill-rule="evenodd">
        <g id="Artboard" transform="translate(-63.000000, -58.000000)">
            <g id="Chere_Logo_White" transform="translate(64.000000, 59.000000)">
                <g id="White" stroke="#FFFFFF" stroke-linecap="round" stroke-linejoin="round" stroke-width="2">
                    <g id="XMLID_101_" transform="translate(0.000000, 34.809524)">
                        <path d="M19.384127,23.4793651 C17.7460317,24.2984127 15.9031746,24.7079365 13.9238095,24.7761905 C13.7873016,24.7761905 13.7190476,24.7761905 13.5825397,24.7761905 C6.21111111,24.7761905 0.136507937,18.7698413 0.136507937,11.3301587 C0.136507937,9.00952381 0.750793651,6.68888889 1.91111111,4.70952381 L1.97936508,4.64126984 C2.04761905,4.5047619 2.11587302,4.36825397 2.25238095,4.23174603 C2.93492063,3.13968254 3.89047619,2.25238095 5.05079365,1.63809524 C7.57619048,0.136507937 10.784127,0.136507937 13.3095238,1.63809524 L13.6507937,1.84285714 L13.9920635,1.63809524 C15.4253968,0.819047619 16.9952381,0.477777778 18.4968254,0.546031746 C17.2,1.2968254 16.1761905,2.32063492 15.3571429,3.54920635 C15.2888889,3.68571429 15.152381,3.89047619 15.084127,4.02698413 L15.015873,4.0952381 C13.7190476,6.27936508 13.1047619,8.8047619 13.1047619,11.3984127 C13.0365079,16.3126984 15.5619048,20.7492063 19.384127,23.4793651 Z" id="XMLID_102_"></path>
                    </g>
                    <g id="XMLID_99_" transform="translate(15.698413, 34.809524)">
                        <path d="M26.9603175,11.3301587 C26.9603175,18.6333333 21.2269841,24.5714286 13.9238095,24.7761905 C13.7873016,24.7761905 13.6507937,24.7761905 13.5825397,24.7761905 C11.5349206,24.7761905 9.55555556,24.2984127 7.84920635,23.4793651 C7.57619048,23.3428571 7.37142857,23.2063492 7.16666667,23.1380952 C6.96190476,23.0015873 6.75714286,22.8650794 6.55238095,22.7968254 C4.5047619,21.568254 2.86666667,19.7253968 1.77460317,17.6777778 C0.819047619,15.8349206 0.273015873,13.7190476 0.273015873,11.4666667 C0.273015873,9.14603175 0.887301587,6.82539683 1.97936508,4.84603175 L2.04761905,4.77777778 C2.11587302,4.64126984 2.18412698,4.5047619 2.32063492,4.36825397 C3.0031746,3.27619048 3.95873016,2.38888889 5.11904762,1.70634921 C5.5968254,1.43333333 6.07460317,1.22857143 6.55238095,1.02380952 C6.89365079,0.887301587 7.3031746,0.819047619 7.64444444,0.750793651 C8.05396825,0.682539683 8.3952381,0.614285714 8.8047619,0.614285714 C10.3746032,0.546031746 11.9444444,0.887301587 13.3095238,1.70634921 L13.6507937,1.91111111 L13.9920635,1.70634921 C17.4730159,-0.341269841 21.8412698,0.546031746 24.3666667,3.48095238 C24.7079365,3.89047619 24.9809524,4.3 25.2539683,4.77777778 L25.3222222,4.84603175 C25.3222222,4.91428571 25.3904762,4.91428571 25.3904762,4.98253968 L25.3904762,5.05079365 C26.3460317,6.82539683 26.9603175,9.07777778 26.9603175,11.3301587 Z" id="XMLID_100_"></path>
                    </g>
                    <path d="M31.9428571,38.3587302 C34.6730159,38.3587302 37.0619048,39.8603175 38.3587302,42.0444444 C38.9730159,43.1365079 39.3142857,44.3650794 39.3142857,45.7301587 C39.3142857,47.0952381 38.9730159,48.3238095 38.3587302,49.415873" id="XMLID_98_"></path>
                    <path d="M13.9920635,33.3761905 C13.9920635,33.3761905 14.5380952,25.2539683 24.2984127,13.8555556 C34.0587302,2.45714286 27.915873,0.477777778 27.915873,0.477777778 C27.915873,0.477777778 21.431746,3.07142857 20.0666667,13.8555556 C18.7015873,24.6396825 27.915873,33.3761905 27.915873,33.3761905" id="XMLID_97_"></path>
                </g>
                <path d="M75.314,57.21 C73.1299891,57.21 71.1770086,56.7340048 69.455,55.782 C67.7329914,54.8299952 66.3820049,53.4930086 65.402,51.771 C64.4219951,50.0489914 63.932,48.1100108 63.932,45.954 C63.932,43.7979892 64.4219951,41.8660085 65.402,40.158 C66.3820049,38.4499915 67.7329914,37.1200048 69.455,36.168 C71.1770086,35.2159952 73.1299891,34.74 75.314,34.74 C77.2180095,34.74 78.9189925,35.1109963 80.417,35.853 C81.9150075,36.5950037 83.0979957,37.6799929 83.966,39.108 L81.74,40.62 C81.0119964,39.5279945 80.0880056,38.7090027 78.968,38.163 C77.8479944,37.6169973 76.6300066,37.344 75.314,37.344 C73.717992,37.344 72.2830064,37.7009964 71.009,38.415 C69.7349936,39.1290036 68.7410036,40.1439934 68.027,41.46 C67.3129964,42.7760066 66.956,44.2739916 66.956,45.954 C66.956,47.6620085 67.3129964,49.1669935 68.027,50.469 C68.7410036,51.7710065 69.7349936,52.7789964 71.009,53.493 C72.2830064,54.2070036 73.717992,54.564 75.314,54.564 C76.6300066,54.564 77.8479944,54.2980027 78.968,53.766 C80.0880056,53.2339973 81.0119964,52.4220055 81.74,51.33 L83.966,52.842 C83.0979957,54.2700071 81.9080076,55.3549963 80.396,56.097 C78.8839924,56.8390037 77.1900094,57.21 75.314,57.21 Z M99.824,34.74 C102.596014,34.74 104.800992,35.544992 106.439,37.155 C108.077008,38.7650081 108.896,41.1099846 108.896,44.19 L108.896,57 L105.914,57 L105.914,44.484 C105.914,42.1879885 105.340006,40.438006 104.192,39.234 C103.043994,38.029994 101.406011,37.428 99.278,37.428 C96.8979881,37.428 95.015007,38.1349929 93.629,39.549 C92.2429931,40.9630071 91.55,42.9159875 91.55,45.408 L91.55,57 L88.568,57 L88.568,25.836 L91.55,25.836 L91.55,38.772 C92.3620041,37.4839936 93.4819929,36.4900035 94.91,35.79 C96.3380072,35.0899965 97.9759908,34.74 99.824,34.74 Z M135.422,46.878 L116.942,46.878 C117.110001,49.1740115 117.991992,51.0289929 119.588,52.443 C121.184008,53.8570071 123.199988,54.564 125.636,54.564 C127.008007,54.564 128.267994,54.3190025 129.416,53.829 C130.564006,53.3389976 131.557996,52.6180048 132.398,51.666 L134.078,53.598 C133.097995,54.7740059 131.873007,55.6699969 130.403,56.286 C128.932993,56.9020031 127.316009,57.21 125.552,57.21 C123.283989,57.21 121.275009,56.7270048 119.525,55.761 C117.774991,54.7949952 116.410005,53.4580085 115.43,51.75 C114.449995,50.0419915 113.96,48.1100108 113.96,45.954 C113.96,43.7979892 114.428995,41.8660085 115.367,40.158 C116.305005,38.4499915 117.592992,37.1200048 119.231,36.168 C120.869008,35.2159952 122.70999,34.74 124.754,34.74 C126.79801,34.74 128.631992,35.2159952 130.256,36.168 C131.880008,37.1200048 133.153995,38.4429915 134.078,40.137 C135.002005,41.8310085 135.464,43.7699891 135.464,45.954 L135.422,46.878 Z M124.754,37.302 C122.625989,37.302 120.841007,37.9809932 119.399,39.339 C117.956993,40.6970068 117.138001,42.4679891 116.942,44.652 L132.608,44.652 C132.411999,42.4679891 131.593007,40.6970068 130.151,39.339 C128.708993,37.9809932 126.910011,37.302 124.754,37.302 Z M143.51,39.234 C144.210004,37.7499926 145.252993,36.6300038 146.639,35.874 C148.025007,35.1179962 149.73999,34.74 151.784,34.74 L151.784,37.638 L151.07,37.596 C148.745988,37.596 146.926007,38.3099929 145.61,39.738 C144.293993,41.1660071 143.636,43.1679871 143.636,45.744 L143.636,57 L140.654,57 L140.654,34.908 L143.51,34.908 L143.51,39.234 Z M159.116,39.234 C159.816004,37.7499926 160.858993,36.6300038 162.245,35.874 C163.631007,35.1179962 165.34599,34.74 167.39,34.74 L167.39,37.638 L166.676,37.596 C164.351988,37.596 162.532007,38.3099929 161.216,39.738 C159.899994,41.1660071 159.242,43.1679871 159.242,45.744 L159.242,57 L156.26,57 L156.26,34.908 L159.116,34.908 L159.116,39.234 Z M191.438,46.878 L172.958,46.878 C173.126001,49.1740115 174.007992,51.0289929 175.604,52.443 C177.200008,53.8570071 179.215988,54.564 181.652,54.564 C183.024007,54.564 184.283994,54.3190025 185.432,53.829 C186.580006,53.3389976 187.573996,52.6180048 188.414,51.666 L190.094,53.598 C189.113995,54.7740059 187.889007,55.6699969 186.419,56.286 C184.948993,56.9020031 183.332009,57.21 181.568,57.21 C179.299989,57.21 177.291009,56.7270048 175.541,55.761 C173.790991,54.7949952 172.426005,53.4580085 171.446,51.75 C170.465995,50.0419915 169.976,48.1100108 169.976,45.954 C169.976,43.7979892 170.444995,41.8660085 171.383,40.158 C172.321005,38.4499915 173.608992,37.1200048 175.247,36.168 C176.885008,35.2159952 178.72599,34.74 180.77,34.74 C182.81401,34.74 184.647992,35.2159952 186.272,36.168 C187.896008,37.1200048 189.169995,38.4429915 190.094,40.137 C191.018005,41.8310085 191.48,43.7699891 191.48,45.954 L191.438,46.878 Z M180.77,37.302 C178.641989,37.302 176.857007,37.9809932 175.415,39.339 C173.972993,40.6970068 173.154001,42.4679891 172.958,44.652 L188.624,44.652 C188.427999,42.4679891 187.609007,40.6970068 186.167,39.339 C184.724993,37.9809932 182.926011,37.302 180.77,37.302 Z" id="cherre" fill="#FFFFFF"></path>
            </g>
        </g>
    </g>
</svg>