<svg xmlns="http://www.w3.org/2000/svg" xmlns:xlink="http://www.w3.org/1999/xlink" viewBox="0 0 442.36 432.353">
  <defs>
    <linearGradient id="a" x1="167.061" y1="226.441" x2="167.061" y2="226.163" gradientTransform="matrix(379.63, 0, 0, -403.529, -63230.452, 91375.649)" gradientUnits="userSpaceOnUse">
      <stop offset="0" stop-color="#fff"/>
      <stop offset="1" stop-color="#fff"/>
    </linearGradient>
    <mask id="b" x="24.273" y="0" width="381.767" height="403.529" maskUnits="userSpaceOnUse">
      <g transform="translate(25.584)">
        <path d="M380.456,103.923l-85.01,47.208a104.593,104.593,0,0,0-90.466-51.9c-57.751,0-104.567,46.647-104.567,104.19S147.229,307.608,204.98,307.608A104.6,104.6,0,0,0,296.7,253.5L380.37,299.76A202.556,202.556,0,0,1,203.32,403.529C91.485,403.529.825,313.2.825,201.765S91.485,0,203.32,0A202.558,202.558,0,0,1,380.456,103.923Z" style="fill: #fff"/>
      </g>
    </mask>
    <mask id="c" x="26.41" y="0" width="379.63" height="403.529" maskUnits="userSpaceOnUse">
      <g transform="translate(25.584)">
        <path d="M380.456,103.923l-85.01,47.208a104.593,104.593,0,0,0-90.466-51.9c-57.751,0-104.567,46.647-104.567,104.19S147.229,307.608,204.98,307.608A104.6,104.6,0,0,0,296.7,253.5L380.37,299.76A202.556,202.556,0,0,1,203.32,403.529C91.485,403.529.825,313.2.825,201.765S91.485,0,203.32,0A202.558,202.558,0,0,1,380.456,103.923Z" style="fill: #fff"/>
      </g>
    </mask>
    <mask id="d" x="0" y="0" width="406.04" height="432.353" maskUnits="userSpaceOnUse">
      <g transform="translate(25.584)">
        <path d="M380.456,103.923l-85.01,47.208a104.593,104.593,0,0,0-90.466-51.9c-57.751,0-104.567,46.647-104.567,104.19S147.229,307.608,204.98,307.608A104.6,104.6,0,0,0,296.7,253.5L380.37,299.76A202.556,202.556,0,0,1,203.32,403.529C91.485,403.529.825,313.2.825,201.765S91.485,0,203.32,0A202.558,202.558,0,0,1,380.456,103.923Z" style="fill: #fff"/>
      </g>
    </mask>
    <linearGradient id="e" x1="166.662" y1="226.39" x2="167.141" y2="225.845" gradientTransform="matrix(291.331, 0, 0, -302.235, -48485.215, 68613.293)" gradientUnits="userSpaceOnUse">
      <stop offset="0" stop-color="#515070"/>
      <stop offset="1" stop-color="#313265"/>
    </linearGradient>
    <mask id="f" x="26.41" y="0" width="415.951" height="403.529" maskUnits="userSpaceOnUse">
      <g transform="translate(25.584)">
        <path d="M380.456,103.923l-85.01,47.208a104.593,104.593,0,0,0-90.466-51.9c-57.751,0-104.567,46.647-104.567,104.19S147.229,307.608,204.98,307.608A104.6,104.6,0,0,0,296.7,253.5L380.37,299.76A202.556,202.556,0,0,1,203.32,403.529C91.485,403.529.825,313.2.825,201.765S91.485,0,203.32,0A202.558,202.558,0,0,1,380.456,103.923Z" style="fill: #fff"/>
      </g>
    </mask>
    <linearGradient id="g" x1="166.696" y1="226.733" x2="166.696" y2="226.45" gradientTransform="matrix(207.611, 0, 0, -149.928, -34295.37, 34261.205)" xlink:href="#e"/>
    <mask id="h" x="19.62" y="0" width="386.42" height="409.813" maskUnits="userSpaceOnUse">
      <g transform="translate(25.584)">
        <path d="M380.456,103.923l-85.01,47.208a104.593,104.593,0,0,0-90.466-51.9c-57.751,0-104.567,46.647-104.567,104.19S147.229,307.608,204.98,307.608A104.6,104.6,0,0,0,296.7,253.5L380.37,299.76A202.556,202.556,0,0,1,203.32,403.529C91.485,403.529.825,313.2.825,201.765S91.485,0,203.32,0A202.558,202.558,0,0,1,380.456,103.923Z" style="fill: #fff"/>
      </g>
    </mask>
    <linearGradient id="i" x1="166" y1="226.817" x2="166.504" y2="226.163" gradientTransform="matrix(157.19, 0, 0, -184.862, -26089.624, 42181.715)" xlink:href="#e"/>
    <mask id="j" x="26.41" y="0" width="381.701" height="409.223" maskUnits="userSpaceOnUse">
      <g transform="translate(25.584)">
        <path d="M380.456,103.923l-85.01,47.208a104.593,104.593,0,0,0-90.466-51.9c-57.751,0-104.567,46.647-104.567,104.19S147.229,307.608,204.98,307.608A104.6,104.6,0,0,0,296.7,253.5L380.37,299.76A202.556,202.556,0,0,1,203.32,403.529C91.485,403.529.825,313.2.825,201.765S91.485,0,203.32,0A202.558,202.558,0,0,1,380.456,103.923Z" style="fill: #fff"/>
      </g>
    </mask>
    <linearGradient id="k" x1="166.684" y1="226.989" x2="167.216" y2="226.362" gradientTransform="matrix(326.19, 0, 0, -170.823, -54250.348, 39022.363)" xlink:href="#e"/>
    <linearGradient id="l" x1="162.175" y1="230.14" x2="162.175" y2="229.64" gradientTransform="matrix(31.363, 0, 0, -43, -4866.627, 10184)" xlink:href="#a"/>
    <linearGradient id="m" x1="161.933" y1="230.328" x2="161.933" y2="229.636" gradientTransform="matrix(30, 0, 0, -41.131, -4831, 9644.657)" xlink:href="#a"/>
    <linearGradient id="n" x1="163.873" y1="228.82" x2="163.873" y2="228.229" gradientTransform="matrix(46.046, 0, 0, -63.131, -7221.716, 14704.657)" xlink:href="#a"/>
  </defs>
  <title>culdesac</title>
  <g>
    <g>
      <path d="M380.456,103.923l-85.01,47.208a104.593,104.593,0,0,0-90.466-51.9c-57.751,0-105.567,46.647-105.567,104.19s47.816,106.19,105.567,106.19A104.6,104.6,0,0,0,296.7,255.5L378.37,299.76c-34.582,61.9-98.908,101.769-175.05,101.769C91.485,401.529,1.825,313.2,1.825,201.765S91.485,0,203.32,0A202.558,202.558,0,0,1,380.456,103.923Z" transform="translate(25.584)" style="fill: url(#a)"/>
      <g style="mask: url(#b)">
        <polygon points="47.057 109.908 84.732 93.41 167.402 123.702 162.417 131.915 24.273 131.915 47.057 109.908" style="fill: #fff;opacity: 0.5115489363670349;isolation: isolate"/>
      </g>
      <g style="mask: url(#c)">
        <polygon points="125.422 92.096 172.7 83.176 255.37 121.243 250.384 131.564 37.249 129.62 125.422 92.096" style="fill: #fff;opacity: 0.5115489363670349;isolation: isolate"/>
      </g>
      <g style="mask: url(#d)">
        <rect y="130.118" width="291.331" height="302.235" style="fill: url(#e)"/>
      </g>
      <g style="mask: url(#f)">
        <path d="M208.735,199.43v98.01L410.68,349.359l5.666-111.842Z" transform="translate(25.584)" style="stroke: #979797;stroke-width: 0.8240000009536743px;fill: url(#g)"/>
      </g>
      <g style="mask: url(#h)">
        <path d="M-5.965,225.366q18.92-2.523,28.368,10.291c9.449,12.813-1.935,88.294,128.822,152.778L134.27,409.813,2.919,338.78Z" transform="translate(25.584)" style="fill: url(#i)"/>
      </g>
      <g style="mask: url(#j)">
        <path d="M70.609,238.4q-13.93,3.768-14.27,11.266c-.339,7.5,34.691,54.535,92.028,84.581s140.714,77.261,152.353,74.89q11.638-2.372,81.806-69.864L153.769,284.212Z" transform="translate(25.584)" style="fill: url(#k)"/>
      </g>
    </g>
    <g>
      <polygon points="68.5 124.158 68.5 140 93.259 140 93.259 125.126 73.767 114.471 68.5 124.158" style="fill: #fff"/>
      <polygon points="93.297 125.368 105.638 120.235 105.6 134.867 93.259 140 93.297 125.368" style="fill: #fff"/>
      <polygon points="73.452 114.659 86.006 109.529 105.638 120.047 93.084 125.176 73.452 114.659" style="fill: #111333"/>
    </g>
    <g>
      <polygon points="25.888 133.653 76.035 150.873 76.035 197.236 25.888 197.236 25.888 133.653" style="fill: #fff"/>
      <polygon points="76.025 150.921 103.152 137.286 103.162 183.624 76.035 197.26 76.025 150.921" style="fill: #fff"/>
      <polygon points="25.891 133.655 53.018 120.019 103.131 137.29 76.004 150.926 25.891 133.655" style="fill: #111333"/>
    </g>
    <g>
      <polygon points="163.409 204.235 118.843 219.625 118.843 261.059 163.409 261.059 163.409 204.235" style="fill: #f3f3f3"/>
      <polygon points="119.668 219.7 95.744 207.529 95.735 248.888 119.659 261.059 119.668 219.7" style="fill: #fff"/>
      <polygon points="163.409 204.236 139.352 191.882 94.909 207.529 118.967 219.882 163.409 204.236" style="fill: #111333"/>
    </g>
    <g>
      <polygon points="141.951 244.991 141.951 288.235 209.626 322 209.626 281.397 156.348 218.547 141.951 244.991" style="fill: #fff"/>
      <polygon points="209.731 282.06 243.463 268.048 243.358 307.988 209.626 322 209.731 282.06" style="fill: #fff"/>
      <polygon points="155.486 219.886 189.801 205.882 243.463 267.533 209.149 281.536 155.486 219.886" style="fill: #111333"/>
    </g>
    <path d="M220.89,319.317V331H218V319.274a15.686,15.686,0,1,1,2.89.043Z" transform="translate(25.584)" style="fill: url(#l)"/>
  </g>
  <path d="M28.112,200.959v11.172H25V200.868a15.008,15.008,0,1,1,3.112.091Z" transform="translate(25.584)" style="fill: url(#m)"/>
  <path d="M326.265,304.938v17.193H322V304.959a23.026,23.026,0,1,1,4.265-.021Z" transform="translate(25.584)" style="fill: url(#n)"/>
</svg>
