<svg xmlns="http://www.w3.org/2000/svg" viewBox="0 0 1000 239">
  <title>Logo–White</title>
  <g>
    <g>
      <path d="M140.21,156.49c3.79-6,5.79-8,9.58-8,6.45,0,8,4.46,8,12.47v1.56c-.44,14.47-3.11,21.15-9.79,26.05-8.24,6-25.61,10.24-43.42,10.24C50.94,198.79,22,158.27,22,117.53c0-41.41,29.83-82.82,86.16-82.82,15.8,0,30.05,3.34,37.62,8,9.35,5.78,9.35,10.91,9.35,21.59v2.23c0,11.13-1.56,15.14-7.57,15.14-5.12,0-6.68-2.23-9.35-6.68-2.89-4.68-6.46-12-14.92-18.26a35,35,0,0,0-20.92-6.68c-27.61,0-47.64,27.16-47.64,64.34,0,2.45,0,4.9.22,7.35,2.89,41.41,26.05,60.55,49.2,60.55a33.71,33.71,0,0,0,24.93-10.46C133.76,167,136.87,162.05,140.21,156.49Z" fill="#fff"/>
      <path d="M294.54,184.32c0,2.89-1.78,4.67-6.68,5.78a205.72,205.72,0,0,0-26.05,7.8,12.2,12.2,0,0,1-4.45.89c-3.12,0-5.79-1.56-5.79-6.68V179.42c0-.45-.22-.89-.67-.89-.22,0-.44,0-.89.67a43.18,43.18,0,0,1-36.51,19.59c-11.57,0-22.7-4.68-29.61-14.25-5.56-7.79-7.34-17.81-7.34-30.5V119.75c0-8,0-12.68-1.78-16.25-1.56-3.11-4-4.67-7.79-6-2.45-.89-6.24-2.22-6.24-5.34,0-2.89,1.78-4.45,6.9-5.57A201.35,201.35,0,0,0,193,79a17.14,17.14,0,0,1,5.57-1.33c2.89,0,5.34,1.56,5.34,6.68v69.46c0,15.8,7.79,23.82,20.71,23.82a23.15,23.15,0,0,0,16.47-6.46c7.57-7.57,10.46-20.48,10.46-48.75,0-10-.22-15.36-2-18.93-1.34-2.89-4-4.67-7.79-6-2.45-.89-6-2.22-6-5.34,0-2.89,1.55-4.45,6.68-5.57A197.56,197.56,0,0,0,268.05,79a15.88,15.88,0,0,1,5.34-1.33c2.9,0,5.34,1.56,5.34,6.68v72.35c0,8,.45,12.91,2,16.25,1.33,2.9,3.78,4.68,7.79,6.24C291.2,180.31,294.54,181.2,294.54,184.32Z" fill="#fff"/>
      <path d="M360,191.44c0,3.34-3.34,4.9-7.34,4.9H309.92c-4,0-7.34-1.56-7.34-4.9,0-2.67,2-4.23,4.67-5.79,3.56-2,6.46-4.67,7.79-7.79,1.56-3.34,2.67-8.24,2.67-23.6V72.34c0-8,0-12.92-1.78-16.26-1.55-2.89-3.78-4.67-7.79-6.23-2.67-1.11-6-2.45-6-5.34,0-2.67,1.56-4.45,6.68-5.57a148,148,0,0,0,22-6.23c4.23-1.56,6.23-2.67,8.9-2.67,3.12,0,5.35,1.56,5.35,6.68V154.26c0,15.36,1.11,20.26,2.67,23.38a21.58,21.58,0,0,0,7.57,8C358,187.43,360,188.77,360,191.44Z" fill="#fff"/>
      <path d="M492.61,184.32c0,2.89-1.56,4.23-6.9,5.56a211.58,211.58,0,0,0-25.83,7.79,14.28,14.28,0,0,1-4.89,1.12c-2.68,0-5.12-1.56-5.12-6.68V181.64c0-1.55-.67-2-1.56-2a2.29,2.29,0,0,0-1.78,1.11c-8.69,10.69-21.6,18-35.85,18a44.09,44.09,0,0,1-19.81-4.9c-18.26-9.35-26.05-29.16-26.05-49.42,0-35.62,22.71-66.79,55.66-66.79a59.91,59.91,0,0,1,27.6,7.12A1.65,1.65,0,0,0,449,85a1,1,0,0,0,.9-1.12V72.34c0-8-.23-12.92-2-16.48-1.33-2.67-3.34-4.45-7.57-6-3.11-1.11-6.23-2.45-6.23-5.34s1.56-4.23,6.68-5.57A188.86,188.86,0,0,0,464.11,32c3.79-1.33,5.12-2,7.57-2,2.9,0,5.12,1.56,5.12,6.68V156.49c0,8,0,13.13,1.78,16.47,1.56,2.9,4,4.45,7.8,6C489.27,180.09,492.61,181.64,492.61,184.32Zm-42.74-47.87c0-28.49-11.8-44.52-28.5-44.52-18,0-28.28,16.92-28.28,43.19,0,24.93,11.36,43.63,29,43.63C437,178.75,449.87,166.28,449.87,136.45Z" fill="#fff"/>
      <path d="M600.4,171.85c0,4.67-6.67,12-14.24,16.92-9.58,6.23-22,9.79-34.51,9.79-20.93,0-41.85-9.79-51-33.61a69,69,0,0,1-4.23-23.38c0-22.26,10.68-45.19,32.28-57.21A54.23,54.23,0,0,1,555,77.68c11.58,0,22.71,3.56,31.39,10.68,11.8,9.8,16.25,23.16,16.25,32.73,0,10-2.89,15.36-18.25,15.36H527.61c-1.78,0-2.68.89-2.68,2.45,0,3.56.45,15.14,7.8,25.38,7.57,10.46,18.25,14.25,28.94,14.25,20.7,0,28.05-11.36,34.06-11.36A4.55,4.55,0,0,1,600.4,171.85Zm-73-49.2h31c11.13,0,16.47-2.67,16.47-10.91,0-9.35-7.79-20.26-22.26-20.26-20.7,0-27.38,23.82-27.38,28.94C525.16,122.2,525.6,122.65,527.38,122.65Z" fill="#fff"/>
      <path d="M618.17,155.82c4.9,0,6.9,4,12.91,11.8,8.24,10.91,17.15,16.47,26.5,16.47,12.91,0,20.48-7.12,20.48-15.36,0-5.34-2.67-10.46-12.25-14.25C654.46,150,636,146.92,624.4,136.9c-6.23-5.35-9.35-13.14-9.35-21.37,0-11.58,6.46-24,19.6-31.4,8.46-4.67,18.47-6.45,27.82-6.45,11.58,0,21.82,2.67,26.72,5.79,7.79,4.67,8.68,12.69,8.68,18.48,0,6-.67,13.35-6.9,13.35-4,0-5.56-1.11-8-5.12-4.23-6.68-11.13-18.25-25.16-18.25-10.91,0-17.81,6.45-17.81,14.24,0,7.35,5.79,11.58,16.92,15.14,14.25,4.68,28.94,7.8,38.51,18a30.17,30.17,0,0,1,8.24,20.92c0,10.47-5.12,21.82-16.7,29.39-9.79,6.68-21.81,9.13-32.94,9.13-15.81,0-30.06-4.9-36.07-10.24-4.68-4.46-6.9-13.58-6.9-22.93C611.05,157.38,614.61,155.82,618.17,155.82Z" fill="#fff"/>
      <path d="M823.32,185a7.81,7.81,0,0,1-1.56,4.68c-3.56,5.34-11.13,9.13-19.14,9.13-8.46,0-17.37-4.9-19.59-18,0-.22-.89-.22-.89-.22-8.46,12.47-22.94,18.26-36.52,18.26-18,0-35-10.47-35-29.17,0-9.57,4.9-19.59,14.92-25.82,11.35-7.13,26-10.24,37.18-15.36,12.24-5.79,17.81-12.25,17.81-20.71,0-6.45-3.56-12.69-11.58-14.91a22.18,22.18,0,0,0-5.56-.67,25.44,25.44,0,0,0-16.26,6c-7.12,6-10.24,13.14-13.35,16.7-1.79,2.22-3.57,3.11-6.91,3.11-5.78,0-7.34-5.12-7.34-12.46,0-5.79,1.11-13.14,4-16.7,3.12-4,9.8-6.9,17.59-8.68a101.78,101.78,0,0,1,22.27-2.45c27.16,0,46.3,15.14,46.3,38.07,0,16-.89,33.39-.89,47.19,0,11.58,1.34,17.81,6.23,17.81,1.12,0,2.45-.22,3.79-.22A4.21,4.21,0,0,1,823.32,185Zm-42.74-49.2a.59.59,0,0,0-.67-.66,1,1,0,0,0-.67.22c-7.34,5.34-19.59,8.46-28.94,14.91-7.12,4.9-9.8,11.14-9.8,16.7,0,9.35,6.91,14.92,15.59,14.92a23.45,23.45,0,0,0,20.7-13.36c3.57-7.57,3.79-15.58,3.79-28.27Z" fill="#fff"/>
      <path d="M879.36,198.79c-20.49,0-41-10-49.21-33.62a62.28,62.28,0,0,1-3.33-20.7c0-22,10.24-46.31,32.28-59,8.68-5.12,19.14-7.79,30.5-7.79,9.12,0,22.26,2,28.27,8.46,3.56,3.56,4.45,9.79,4.45,14.91a42.39,42.39,0,0,1-.67,8.69c-.89,4.23-2.89,6.23-7.34,6.23-2.67,0-4.23-1.34-6-3.78s-4.68-8.24-8-12.25c-4-4.67-9.35-8.24-17.14-8.24-17.14,0-28,17.15-28,39.19,0,8,1.33,18.25,4,24.71,8.23,20.48,22.7,23.82,32.5,23.82,10.24,0,18.7-5.34,23.82-9.13,2.45-1.78,4.23-2.89,6-2.89a4.46,4.46,0,0,1,4.45,4.45,11.17,11.17,0,0,1-2.22,6C914.75,191,898.06,198.79,879.36,198.79Z" fill="#fff"/>
    </g>
    <g>
      <path d="M943.1,84.49v16.06h-3V84.49h-6.89V81.66H950v2.83Z" fill="#fff"/>
      <path d="M972,83.3l-5.53,17.25h-4.59L956.38,83.3v17.25h-3V81.66h5.53l5.27,16.59,5.26-16.59H975v18.89h-3Z" fill="#fff"/>
    </g>
  </g>
</svg>
