<svg height='300px' width='300px'  fill="#e05f84" xmlns="http://www.w3.org/2000/svg" data-name="Layer 1" viewBox="0 0 100 100" x="0px" y="0px"><title>34</title><path d="M95,34.92529V65.07471A16.77457,16.77457,0,0,1,78.24463,81.83008H46.22607l7.16181,7.163a1.19738,1.19738,0,0,1-.00006,1.69324l-3.96308,3.963a1.19726,1.19726,0,0,1-1.69323,0L31.75977,78.67755a1.19735,1.19735,0,0,1,0-1.6933L47.73138,61.01306a1.19737,1.19737,0,0,1,1.69336.00006L53.38788,64.977a1.19726,1.19726,0,0,1-.00006,1.69318l-7.15961,7.15991H78.24463A8.7654,8.7654,0,0,0,87,65.07471V34.92529a8.7654,8.7654,0,0,0-8.75537-8.75537h-.41455v-8h.41455A16.77457,16.77457,0,0,1,95,34.92529ZM21.75537,81.83008h.41455v-8h-.41455A8.7654,8.7654,0,0,1,13,65.07471V34.92529a8.7654,8.7654,0,0,1,8.75537-8.75537H53.77179l-7.15961,7.15991a1.19726,1.19726,0,0,0-.00006,1.69318l3.96314,3.96387a1.19737,1.19737,0,0,0,1.69336.00006L68.24023,23.01575a1.19735,1.19735,0,0,0,0-1.6933L52.26849,5.35071a1.19726,1.19726,0,0,0-1.69323,0l-3.96308,3.963a1.19738,1.19738,0,0,0-.00006,1.69324l7.16181,7.163H21.75537A16.77457,16.77457,0,0,0,5,34.92529V65.07471A16.77457,16.77457,0,0,0,21.75537,81.83008Z"></path></svg>