<?xml version="1.0" encoding="utf-8"?>
<!-- Generator: Adobe Illustrator 22.0.1, SVG Export Plug-In . SVG Version: 6.00 Build 0)  -->
<svg version="1.1" xmlns="http://www.w3.org/2000/svg" xmlns:xlink="http://www.w3.org/1999/xlink" x="0px" y="0px"
	 viewBox="0 0 533 533" style="enable-background:new 0 0 533 533;" xml:space="preserve">
<style type="text/css">
	.st0{fill:#0D0F21;}
	.st1{fill:none;stroke:#E05F84;stroke-width:11.8697;stroke-miterlimit:10;}
	.st2{fill:#E05F84;}
	.st3{fill:none;stroke:#E05F84;stroke-width:12;stroke-miterlimit:10;}
</style>
<g id="Layer_2">
	<g id="_x34_FBKAh.tif">
		
			<image style="overflow:visible;" width="1920" height="878" id="Layer_0_1_" xlink:href="80B1F43AC185F923.png"  transform="matrix(1.4434 0 0 1.4434 -1122.1855 -291.0625)">
		</image>
	</g>
	<circle class="st0" cx="269.9" cy="257.2" r="410.4"/>
	<path class="st1" d="M306.1-60c162.8,19.6,289,158.1,289,326.2c0,117.3-61.5,220.3-154,278.4"/>
	<path class="st1" d="M239,593.7C70.4,579.7-62.1,438.5-62.1,266.3c0-119.7,64-224.4,159.6-281.9"/>
</g>
<g id="Layer_1">
	<g>
		<path class="st2" d="M262.4,236.6h8.5c1.8,0,3.7,0.7,4.8,2.1c1.4,1.4,2.1,3,2.1,4.8c0,3.9-3.2,6.9-6.9,6.9h-8.5
			c-3,0-5.5-1.8-6.7-4.6c-0.9-2.5-3.9-3.9-6.4-3c-2.5,0.9-3.9,3.9-3,6.4c2.5,6.4,8.3,10.6,15.2,11v6.7c0,2.8,2.3,5.1,5.1,5.1
			s5.1-2.3,5.1-5.1v-6.7c9-0.5,16.1-7.8,16.1-17c0-4.6-1.8-8.7-4.8-12c-3.2-3.2-7.6-5.1-12.2-5.1h-8.5c-3.9,0-6.9-3.2-6.9-6.9
			c0-1.8,0.7-3.7,2.1-4.8c1.4-1.4,3-2.1,4.8-2.1h8.5c3,0,5.5,1.8,6.4,4.6c0.9,2.5,3.9,3.9,6.4,3c2.5-0.9,3.9-3.9,3-6.4
			c-2.3-6.4-8.3-10.8-15.2-11v-6.7c0-2.8-2.3-5.1-5.1-5.1s-5.1,2.3-5.1,5.1v6.7c-3.9,0.2-7.8,1.8-10.8,4.8
			c-3.2,3.2-5.1,7.6-5.1,12.2C245.3,228.7,252.9,236.6,262.4,236.6z"/>
		<path class="st2" d="M370.5,162.9H162.5c-3,0-5.3,2.3-5.3,5.3v196.6c0,3,2.3,5.3,5.3,5.3h208.1c3,0,5.3-2.3,5.3-5.3V168.2
			C375.8,165.2,373.5,162.9,370.5,162.9z M266.5,173.5c22.8,0,41.4,26,41.4,58s-18.6,58-41.4,58s-41.4-26-41.4-58
			S243.7,173.5,266.5,173.5z M167.7,173.5h25.1c-2.3,12.7-12.2,22.8-25.1,25.1C167.7,198.6,167.7,173.5,167.7,173.5z M167.7,209.4
			c18.6-2.3,33.4-17.3,35.9-35.9h35c-14.5,12.2-24.2,33.6-24.2,58s9.7,45.8,24.2,58h-35c-2.3-18.6-17.3-33.4-35.9-35.9
			C167.7,253.6,167.7,209.4,167.7,209.4z M167.7,264.4c12.7,2.3,22.8,12.2,25.1,25.1h-25.1V264.4z M365.3,359.5H167.7v-12.7H365
			v12.7H365.3z M365.3,336H167.7v-12.7H365V336H365.3z M365.3,312.8H167.7v-12.7H365v12.7H365.3z M365.3,289.3h-25.1
			c2.3-12.7,12.2-22.8,25.1-25.1V289.3z M365.3,253.6c-18.6,2.3-33.4,17.3-35.9,35.9h-35c14.5-12.2,24.2-33.6,24.2-58
			s-9.7-45.8-24.2-58h35c2.3,18.6,17.3,33.4,35.9,35.9V253.6L365.3,253.6z M365.3,198.6c-12.7-2.3-22.8-12.2-25.1-25.1h25.1V198.6z"
			/>
		<path class="st2" d="M203.7,231.5c0-3-2.3-5.3-5.3-5.3h-14.7c-3,0-5.3,2.3-5.3,5.3s2.3,5.3,5.3,5.3h14.7
			C201.4,236.8,203.7,234.5,203.7,231.5z"/>
		<path class="st2" d="M329.3,231.5c0,3,2.3,5.3,5.3,5.3h14.7c3,0,5.3-2.3,5.3-5.3s-2.3-5.3-5.3-5.3h-14.7
			C331.6,226.2,329.3,228.5,329.3,231.5z"/>
	</g>
	<path class="st2" d="M840,565.3"/>
	<path class="st3" d="M-186.6-153.2H69.5c0,0,117.3-3.4,117.3,110.3"/>
	<path class="st3" d="M-403.4,130.4h301.7c0,0,54.5,4.9,113.1-71.6"/>
	<path class="st3" d="M950.4-153.2H304.1c0,0-117.3-3.4-117.3,110.3c0,0,0,100.2,117.2,100.2"/>
	<path class="st3" d="M-16.6,706.2h246.1c0,0,117.3-3.6,117.3-117.3"/>
	<path class="st3" d="M789.6,706.2H464.1c0,0-117.3-3.6-117.3-117.3c0,0,3.8-106.9-106.9-106.9"/>
	<path class="st3" d="M1032.1,127.8H711.3c0,0-117.3,3.6-117.3,117.3"/>
	<path class="st3" d="M-242.1,414.9h64.5c0,0,117.3-3.6,117.3-117.3"/>
	<path class="st3" d="M913.8,416.5H643.5c0,0-67.5,0-118.3,52.2"/>
	<polyline class="st2" points="436.5,517 413.4,561.3 462.4,560.4 	"/>
	<polyline class="st2" points="288.5,32.4 325.8,65.5 279.8,82.2 	"/>
	<polyline class="st2" points="76.2,-31 126.1,-33 104.4,11 	"/>
	<polyline class="st2" points="254.1,509.1 216.8,476 262.9,459.3 	"/>
</g>
</svg>
