<svg xmlns="http://www.w3.org/2000/svg" viewBox="0 0 727.66 54.6"><path fill="#fff" d="M410.35 34c0 4.16-4.08 7.47-8.55 7.47s-7.93-1-8.16-6.39l-.31-7.24-19.79 2.62v5.77c0 9.55 7.94 18.25 29.65 18.25 13.86 0 27.95-6.46 27.95-19.25V.39h-20.79zm63.2-34c-22.48 0-34.73 9.62-34.73 27.26 0 19.25 14.17 27.25 34.73 27.25 20.25 0 34.8-8 34.8-27.25C508.35 9.55 493.8 0 473.55 0zm0 41.12c-8.7 0-13.48-5.32-13.48-13.94 0-9.16 5.16-13.78 13.48-13.78 9 0 13.47 6 13.47 13.78-.02 9.01-5.23 13.94-13.47 13.94zm88.25-13.25L539.7.31h-23.49v53.9H537V25.72l23.1 28.49h22.48V.31H561.8zM614.37 34h32V20.48h-32v-6.31h39.27V.31h-60.06V54.2h62.29V40.35h-41.5zm71.86-18.41c0-2.46 3.09-3 7.24-3 4.39 0 8.09 2.39 8.78 4.08l23.71.46c-2.3-12.7-13.16-17-33.1-17-13.63 0-29.65 4.39-29.65 18 0 17.87 41.35 13.63 41.35 19.79 0 1.85-2.54 3.39-6.47 3.39-6.23 0-8.77-2.77-9.7-4.47l-25.64-.92c0 10.93 10.09 18.63 34.5 18.63 25.48 0 30.41-10.78 30.41-18.32 0-20.91-41.43-13.05-41.43-20.68zM149.1 17.34C149.1 7.64 143 .4 125.23.4h-43.5v53.9h20.79V34h11.24l12.55 20.3h22.87l-14-22.79c10.46-1.62 13.92-7.39 13.92-14.17zm-24.49 3.23h-22.09v-6.31h22a3.36 3.36 0 0 1 3.54 3.08 3.22 3.22 0 0 1-3.45 3.23zm54.53 13.48h32V20.57h-32v-6.31h39.27V.4h-60.06v53.9h62.29V40.44h-41.5zM248.84.4L227.2 54.3h19.63l2.62-6.55h22.87L275 54.3h19.63L272.94.4zm5.31 35.65l6.7-16.79 6.77 16.79zm36.11-21.79h19.25v40h20.79v-40h19.24V.4h-59.28zM39.65 36h6.78a13.59 13.59 0 0 1-11 5.62 14.12 14.12 0 0 1-13.95-14.35A14.12 14.12 0 0 1 35.42 13a13.71 13.71 0 0 1 12 7.29h22C67.7 6.32 55.66.09 35.88.09 15.24.09 0 9 0 27.35 0 48.21 16.86 54.6 35.88 54.6c9.93 0 16.86-2.46 23.18-6.69l1.84 5.23h8.78V24.27h-30z" /></svg>