<?xml version="1.0" encoding="utf-8"?>
<!-- Generator: Adobe Illustrator 24.1.1, SVG Export Plug-In . SVG Version: 6.00 Build 0)  -->
<svg version="1.1" id="Layer_1" xmlns="http://www.w3.org/2000/svg" xmlns:xlink="http://www.w3.org/1999/xlink" x="0px" y="0px"
	 viewBox="0 0 128 121" style="enable-background:new 0 0 128 121;" xml:space="preserve">
<style type="text/css">
	.st0{fill:#FFFFFF;}
	.st1{fill-rule:evenodd;clip-rule:evenodd;fill:#0A0E17;}
</style>
<path class="st0" d="M128,102.2V62.8c0-5-2-9.8-5.6-13.3L76.9,5.2c-7.2-7-18.6-7-25.8,0L5.6,49.6C2,53.1,0,57.9,0,62.8v39.3
	c0,10.2,8.3,18.5,18.5,18.5h91C119.7,120.7,128,112.4,128,102.2z"/>
<path class="st1" d="M26.2,77V65.5h-8.3v31.1h8.2V84.9c0.1-2.6,1.8-3.8,3.4-3.8c1.6,0,2.9,0.8,3,3.3v12.2h8.1V84.4
	c0-7.4-4.2-10.3-8.6-10.3C29.4,74.1,27.7,75,26.2,77z M69.2,74.6h-7.7L61,77c-1.2-1.8-3.3-2.9-6.4-2.9c-6.4,0-10.7,5-10.7,11.5
	c0,6.4,3.6,11,10.1,11.4c2.5,0.1,5.4-0.6,7.3-2.8l0.4,2.4h7.6C69.2,96.6,69.2,74.6,69.2,74.6z M56.5,90.4c-2.5,0-4.4-1.7-4.4-4.8
	s2-4.8,4.4-4.9c2.9,0,4.5,1.9,4.5,4.9C61,88.2,59.3,90.4,56.5,90.4z M82.2,76.5c1.2-1.5,3.3-2.4,6.1-2.4c6.4,0,10.7,4.8,10.7,11.5
	c0,6.9-3.6,11-10.1,11.4c-2.5,0.1-5.4-0.6-7.3-2.8l-0.4,2.4h-7.3V65.5h8.2L82.2,76.5L82.2,76.5z M82,85.8c0,2.3,1.6,4.6,4.4,4.6
	c2.5,0,4.4-1.7,4.4-4.8s-1.9-4.9-4.4-4.9C83.5,80.8,82,83.2,82,85.8z M110.8,75v21.6h-8.2V75H110.8z"/>
<path class="st0" d="M106.8,24.6c3.4,0,6.1-2.8,6.1-6.1s-2.8-6.1-6.1-6.1s-6.1,2.8-6.1,6.1S103.4,24.6,106.8,24.6z"/>
</svg>
