<svg xmlns="http://www.w3.org/2000/svg" viewBox="0 0 145.978 44.341"><title>handle</title><path d="M64.6,16.757a7.76,7.76,0,0,1,7.852-7.7V3.645A13.555,13.555,0,0,0,58.81,16.909v.153H64.6v-.306Z" style="fill:#5a6084"/><path d="M72.455,3.645V9.058a7.761,7.761,0,0,1,7.853,7.7v.306H86.1V16.91A13.507,13.507,0,0,0,72.455,3.645Z" style="fill:#959eba"/><path d="M17.718,12.717V23.848h.075a4.265,4.265,0,0,1,.687-1.068,4.854,4.854,0,0,1,1.143-.99,5.492,5.492,0,0,1,1.525-.686,5.429,5.429,0,0,1,1.982-.23,7.907,7.907,0,0,1,3.584.686,5.188,5.188,0,0,1,2.135,1.906,6.908,6.908,0,0,1,.99,2.821,17.3,17.3,0,0,1,.229,3.507V40.239H24.274v-9.3A12.4,12.4,0,0,0,24.2,29.26a5.446,5.446,0,0,0-.381-1.6,3.414,3.414,0,0,0-.839-1.143,2.831,2.831,0,0,0-1.753-.457,4.345,4.345,0,0,0-1.83.38,2.414,2.414,0,0,0-1.068,1.068,5.075,5.075,0,0,0-.456,1.525,13.367,13.367,0,0,0-.078,1.83v9.377H12V12.717Zm87.824,0h5.794V40.239h-5.794Z" style="fill:#fff"/><path d="M133.064,36.961a8.816,8.816,0,0,1-3.507,2.744,10.1,10.1,0,0,1-4.421.991,12.289,12.289,0,0,1-4.118-.686,9.723,9.723,0,0,1-3.354-1.983,9.28,9.28,0,0,1-2.211-3.125,10.107,10.107,0,0,1-.839-4.04,8.522,8.522,0,0,1,.839-4.041,9.285,9.285,0,0,1,2.211-3.126,9.8,9.8,0,0,1,3.355-1.983,12.279,12.279,0,0,1,4.117-.686,9.512,9.512,0,0,1,3.659.686,7.269,7.269,0,0,1,2.744,1.983,9.546,9.546,0,0,1,1.753,3.126,13.593,13.593,0,0,1,.686,4.04v1.83H120.409a4.3,4.3,0,0,0,1.524,2.668,4.185,4.185,0,0,0,2.9.992,4.807,4.807,0,0,0,2.44-.611,6.092,6.092,0,0,0,1.753-1.676Zm-4.879-8.31a3.389,3.389,0,0,0-.991-2.516,3.507,3.507,0,0,0-2.592-1.068,3.675,3.675,0,0,0-1.679.306,5.311,5.311,0,0,0-1.3.761,3.207,3.207,0,0,0-.839,1.145,2.613,2.613,0,0,0-.3,1.372ZM48.594,40.239V37.8h-.077a9.9,9.9,0,0,1-.915,1.068,4.98,4.98,0,0,1-1.3.914,11.044,11.044,0,0,1-1.676.686,7.707,7.707,0,0,1-1.907.229,8.735,8.735,0,0,1-3.812-.763,8.541,8.541,0,0,1-2.9-1.981,9.326,9.326,0,0,1-1.906-3.126,13.119,13.119,0,0,1-.686-3.965,12.9,12.9,0,0,1,.61-3.812,9.335,9.335,0,0,1,1.754-3.2,9.624,9.624,0,0,1,2.668-2.288,7.105,7.105,0,0,1,3.583-.839,11.617,11.617,0,0,1,3.735.535,5.929,5.929,0,0,1,2.745,1.982h.077v-1.83h5.794V40.239Zm.076-9.53a4.612,4.612,0,0,0-1.22-3.43,4.42,4.42,0,0,0-3.431-1.373,4.209,4.209,0,0,0-3.43,1.373,4.853,4.853,0,0,0-1.22,3.43,4.614,4.614,0,0,0,1.22,3.431,4.426,4.426,0,0,0,3.43,1.372A4.213,4.213,0,0,0,47.45,34.14,4.948,4.948,0,0,0,48.67,30.709Z" style="fill:#fff"/><path d="M76.572,26.211a10.21,10.21,0,0,0-.991-2.82,4.752,4.752,0,0,0-2.134-1.907,8.336,8.336,0,0,0-3.583-.686,8.814,8.814,0,0,0-1.982.228,7.924,7.924,0,0,0-1.6.686,4.844,4.844,0,0,0-1.143.992c-.229.229-.381.534-.61.762V21.408H58.733V40.239h5.794V30.861a14.74,14.74,0,0,1,.076-1.83,5.052,5.052,0,0,1,.458-1.524,2.407,2.407,0,0,1,1.067-1.068,4.345,4.345,0,0,1,1.83-.38,2.985,2.985,0,0,1,1.753.457,2.5,2.5,0,0,1,.839,1.143,4.934,4.934,0,0,1,.38,1.6,12.242,12.242,0,0,1,.077,1.678v9.3H76.8V29.8a13.729,13.729,0,0,0-.229-3.583Z" style="fill:#fff"/><path d="M95.4,40.239V37.8h-.076a10.133,10.133,0,0,1-.915,1.068,5.03,5.03,0,0,1-1.3.914,11.068,11.068,0,0,1-1.678.686,7.7,7.7,0,0,1-1.906.229,8.73,8.73,0,0,1-3.811-.763,8.532,8.532,0,0,1-2.9-1.981,9.31,9.31,0,0,1-1.906-3.126,13.089,13.089,0,0,1-.686-3.965,12.837,12.837,0,0,1,.61-3.812,9.333,9.333,0,0,1,1.753-3.2,9.638,9.638,0,0,1,2.668-2.288,7.11,7.11,0,0,1,3.583-.839,11.627,11.627,0,0,1,3.736.535,5.934,5.934,0,0,1,2.745,1.982H95.4V12.564H101.2V40.086H95.4Zm.076-9.53a4.608,4.608,0,0,0-1.22-3.43,4.42,4.42,0,0,0-3.431-1.373,4.209,4.209,0,0,0-3.43,1.373,4.852,4.852,0,0,0-1.219,3.43A4.614,4.614,0,0,0,87.4,34.14a4.424,4.424,0,0,0,3.43,1.372,4.211,4.211,0,0,0,3.431-1.372A4.612,4.612,0,0,0,95.479,30.709Z" style="fill:#fff"/><rect width="145.978" height="44.341" style="fill:none"/></svg>