<?xml version="1.0" encoding="utf-8"?>
<!-- Generator: Adobe Illustrator 22.0.1, SVG Export Plug-In . SVG Version: 6.00 Build 0)  -->
<svg version="1.1" id="Layer_1" xmlns="http://www.w3.org/2000/svg" xmlns:xlink="http://www.w3.org/1999/xlink" x="0px" y="0px"
	 viewBox="0 0 62 16" style="enable-background:new 0 0 62 16;" xml:space="preserve">
<style type="text/css">
	.st0{fill:#FFFFFF;}
</style>
<g>
	<path class="st0" d="M24.3,8.5L24.3,8.5l3.2-3.2H29l-3.5,3.2l3.9,3.8h-1.5l-3.5-3.7h0v3.7h-1V3.6h1V8.5z"/>
	<path class="st0" d="M34.3,8.8c-1.6,0-3.6,0.2-3.6,1.5c0,1,0.8,1.3,1.6,1.3c1.4,0,2.2-1.1,2.2-2.3V8.8H34.3z M34.6,7.8
		C34.6,6.6,34,6,32.8,6c-0.8,0-1.6,0.3-2.1,0.8l-0.6-0.7c0.6-0.6,1.5-1,2.7-1c1.5,0,2.7,0.8,2.7,2.6v3.1c0,0.5,0,1.2,0.1,1.6h-0.9
		c-0.1-0.3-0.1-0.8-0.1-1.1h0c-0.6,0.9-1.4,1.3-2.5,1.3c-1.1,0-2.4-0.6-2.4-2.1c0-2.2,2.4-2.4,4.9-2.4V7.8z"/>
	<path class="st0" d="M41.3,7c-0.3-0.6-0.9-1-1.7-1c-0.7,0-1.5,0.3-1.5,1.1c0,0.7,0.5,1,1.7,1.2c1.6,0.3,2.4,1,2.4,2.1
		c0,1.6-1.3,2.2-2.6,2.2c-1.1,0-2.1-0.4-2.7-1.4l0.8-0.6c0.4,0.6,1.1,1.1,1.9,1.1c0.9,0,1.6-0.3,1.6-1.2c0-0.7-0.7-1-2-1.4
		c-0.8-0.2-2-0.6-2-1.9c0-1.4,1.2-2,2.5-2c1,0,2,0.5,2.4,1.3L41.3,7z"/>
	<path class="st0" d="M48,8.8c-1.6,0-3.6,0.2-3.6,1.5c0,1,0.8,1.3,1.6,1.3c1.4,0,2.2-1.1,2.2-2.3V8.8H48z M48.3,7.8
		c0-1.2-0.7-1.8-1.9-1.8c-0.8,0-1.6,0.3-2.1,0.8l-0.6-0.7c0.6-0.6,1.5-1,2.7-1c1.5,0,2.7,0.8,2.7,2.6v3.1c0,0.5,0,1.2,0.1,1.6h-0.9
		c-0.1-0.3-0.1-0.8-0.1-1.1h0c-0.6,0.9-1.4,1.3-2.5,1.3c-1.1,0-2.4-0.6-2.4-2.1c0-2.2,2.4-2.4,4.9-2.4L48.3,7.8z"/>
	<path class="st0" d="M11.7,12.8V3.2h7.2v9.5H11.7z M12.4,12h6l-4.3-0.9V4.8L18.4,4h-6V12z"/>
</g>
</svg>
