<?xml version="1.0" encoding="utf-8"?>
<!-- Generator: Adobe Illustrator 22.0.1, SVG Export Plug-In . SVG Version: 6.00 Build 0)  -->
<svg version="1.1" id="Layer_1" xmlns="http://www.w3.org/2000/svg" xmlns:xlink="http://www.w3.org/1999/xlink" x="0px" y="0px"
	 viewBox="0 0 62 16" style="enable-background:new 0 0 62 16;" xml:space="preserve">
<style type="text/css">
	.st0{fill:#FFFFFF;}
</style>
<g>
	<path class="st0" d="M22.7,6.6L22.7,6.6l4.1-4h1.8l-4.4,4.1l4.9,4.8h-1.9l-4.4-4.7h-0.1v4.7h-1.3v-11h1.3L22.7,6.6z"/>
	<path class="st0" d="M35.3,7c-2.1,0-4.5,0.2-4.5,1.9c0,1.3,1.1,1.7,2.1,1.7c1.8,0,2.8-1.4,2.8-2.9V7H35.3z M35.7,5.8
		c0-1.5-0.8-2.3-2.3-2.3c-1,0-2,0.4-2.6,1L30,3.7c0.7-0.7,1.9-1.3,3.4-1.3c1.9,0,3.4,1.1,3.4,3.2v3.9c0,0.7,0.1,1.5,0.1,2h-1.1
		c-0.1-0.4-0.1-1-0.1-1.4h0c-0.8,1.2-1.8,1.7-3.2,1.7c-1.3,0-3-0.7-3-2.7c0-2.7,3-3,6.2-3V5.8z"/>
	<path class="st0" d="M44.1,4.7C43.8,4,43,3.5,42,3.5c-0.9,0-1.8,0.4-1.8,1.4c0,0.8,0.7,1.2,2.1,1.5c2.1,0.4,3,1.2,3,2.6
		c0,2-1.7,2.7-3.3,2.7c-1.3,0-2.7-0.5-3.5-1.7l1-0.8c0.4,0.8,1.4,1.4,2.4,1.4C43,10.6,44,10.2,44,9c0-0.9-0.9-1.3-2.6-1.7
		c-1-0.2-2.5-0.7-2.5-2.4c0-1.8,1.5-2.6,3.1-2.6c1.2,0,2.5,0.6,3.1,1.6L44.1,4.7z"/>
	<path class="st0" d="M52.5,7C50.4,7,48,7.3,48,9c0,1.3,1.1,1.7,2.1,1.7c1.8,0,2.8-1.4,2.8-2.9V7H52.5z M52.9,5.8
		c0-1.5-0.8-2.3-2.3-2.3c-1,0-2,0.4-2.6,1l-0.7-0.9c0.7-0.7,1.9-1.3,3.4-1.3c1.9,0,3.4,1.1,3.4,3.2v3.9c0,0.7,0.1,1.5,0.1,2h-1.1
		C53,11,53,10.5,53,10h0c-0.8,1.2-1.8,1.7-3.2,1.7c-1.3,0-3-0.7-3-2.7c0-2.7,3-3,6.2-3L52.9,5.8z"/>
	<path class="st0" d="M6.9,12V0h9v12H6.9z M7.7,11h7.5L9.8,10V2l5.4-1H7.7L7.7,11z"/>
</g>
</svg>
