<svg xmlns="http://www.w3.org/2000/svg" viewBox="0 0 62 16"><g fill="#fff" fill-rule="evenodd"><path d="m20.4189564 8.73082462h.0721108l5.2012624-5.15104616h2.3599888l-5.6828203 5.22443077 6.260799 6.20086157h-2.4080626l-5.7311673-6.0056308h-.0721108v6.0056308h-1.6375154v-14.14827695h1.6375154z"/><path d="m36.6733247 9.29239692c-2.6730151 0-5.7792411.29298462-5.7792411 2.46572308 0 1.6357846 1.372563 2.1727385 2.6487051 2.1727385 2.3119149 0 3.6120939-1.7576308 3.6120939-3.7841539v-.85430768zm.4815579-1.66015384c0-1.97723077-1.0595366-2.95393846-3.0098051-2.95393846-1.3244891 0-2.5525574.53695384-3.3474147 1.3428l-.915042-1.09883077c.915042-.92741539 2.5044835-1.6355077 4.4307151-1.6355077 2.4320996 0 4.3826413 1.36716923 4.3826413 4.15024616v5.00483079c0 .8786769.0723839 1.9284923.1925685 2.5632h-1.4687106c-.0964208-.5616-.1685316-1.2450462-.1685316-1.8553846h-.048347c-1.0354997 1.5136615-2.2876049 2.1483692-4.0933788 2.1483692-1.7098993 0-3.9010833-.9276923-3.9010833-3.4668 0-3.51526155 3.8286994-3.83261539 7.9463882-3.83261539z"/><path d="m48.0873669 6.28963692c-.4815579-.95206154-1.5170576-1.61141538-2.7691628-1.61141538-1.1797212 0-2.3837526.51286154-2.3837526 1.78227692 0 1.07418462.8426581 1.5624 2.6970521 1.95313846 2.6484319.56132308 3.9008102 1.5624 3.9008102 3.34439998 0 2.6122154-2.1674203 3.5399077-4.2381466 3.5399077-1.709353 0-3.4195255-.6834461-4.454752-2.2214769l1.300179-.9767077c.5779787 1.0010769 1.806047 1.7822769 3.1305361 1.7822769 1.396873 0 2.6489782-.5125846 2.6489782-2.0018769 0-1.1963077-1.1802676-1.6845231-3.3231047-2.19710769-1.324489-.31763077-3.2269569-.90332308-3.2269569-3.07606154 0-2.31923077 1.9748518-3.32030769 4.0215411-3.32030769 1.5651315 0 3.2264107.75683077 3.9488841 2.0508923z"/><path d="m58.8593228 9.29239692c-2.6730151 0-5.7792411.29298462-5.7792411 2.46572308 0 1.6357846 1.3725629 2.1727385 2.648705 2.1727385 2.311915 0 3.6123671-1.7576308 3.6123671-3.7841539v-.85430768zm.481831-1.66015384c0-1.97723077-1.0598097-2.95393846-3.0100783-2.95393846-1.3244891 0-2.5525573.53695384-3.3471415 1.3428l-.915042-1.09883077c.915042-.92741539 2.5042104-1.6355077 4.430442-1.6355077 2.4323727 0 4.3826412 1.36716923 4.3826412 4.15024616v5.00483079c0 .8786769.072384 1.9284923.1925686 2.5632h-1.4687107c-.0964208-.5616-.1685316-1.2450462-.1685316-1.8553846h-.048347c-1.0352265 1.5136615-2.2876048 2.1483692-4.0933787 2.1483692-1.7098993 0-3.9010834-.9276923-3.9010834-3.4668 0-3.51526155 3.8286995-3.83261539 7.9466614-3.83261539z"/><path d="m0 15.6976v-15.48221538h11.6352365v15.48221538zm1.09247815-1.2576462h9.72320855l-6.98491134-1.386v-10.28686149l6.98491134-1.29433846h-9.72320855z"/></g></svg>