<svg xmlns="http://www.w3.org/2000/svg" viewBox="0 0 193.515 21.118"><title>metropolis</title><path d="M18.88.363V20.686h-2.8V5.635l-.157-.047c-.687,1.117-1.378,2.232-2.062,3.351-.99,1.621-1.972,3.246-2.966,4.864A1.977,1.977,0,0,1,8,13.824C6.466,11.358,4.949,8.882,3.424,6.411c-.149-.242-.313-.475-.583-.881V20.677H0V.367c.82,0,1.629-.041,2.429.026.216.018.458.329.6.56q3.022,4.973,6.02,9.96c.11.181.235.354.4.605L13.758,4.44c.705-1.159,1.431-2.306,2.1-3.484a1.031,1.031,0,0,1,1.1-.6C17.58.4,18.2.363,18.88.363Z" style="fill:#fff"/><path d="M64.487,12.415v8.273H61.566V.4c.253-.014.49-.038.726-.038q4.361,0,8.721,0a4.783,4.783,0,0,1,5.2,4.915,15.307,15.307,0,0,1-.052,2.99,4.323,4.323,0,0,1-2.626,3.556c1.423,2.968,2.82,5.879,4.28,8.92-1.045,0-1.933.036-2.814-.026-.206-.014-.459-.326-.572-.558-1.149-2.361-2.29-4.728-3.394-7.11a.961.961,0,0,0-1.046-.651C68.195,12.438,66.4,12.415,64.487,12.415Zm0-9.758c0,2.388-.009,4.687.021,6.985a.664.664,0,0,0,.468.453c2.085-.016,4.171-.048,6.254-.136A1.827,1.827,0,0,0,72.9,8.717a6.2,6.2,0,0,0-.076-4.828,1.954,1.954,0,0,0-1.863-1.222C68.844,2.634,66.729,2.657,64.484,2.657Z" style="fill:#fff"/><path d="M98.74,10.7a35.871,35.871,0,0,1-.035,4.708c-.438,3.293-2.059,4.9-5.306,5.465a15.632,15.632,0,0,1-6.843-.294,5.2,5.2,0,0,1-4.133-4.929c-.152-2.977-.235-5.968-.144-8.946.072-2.376.739-4.627,3.2-5.676a13.726,13.726,0,0,1,3.507-.9A12.371,12.371,0,0,1,94.915.7c2.411.87,3.881,3.14,3.947,6.082.029,1.3.005,2.608.005,3.912Zm-2.917.019c0-1.494.035-2.989-.009-4.482A3.337,3.337,0,0,0,93.021,2.73a9.66,9.66,0,0,0-4.821.046c-1.905.521-2.771,1.4-2.839,3.359-.106,3.058-.073,6.125.007,9.185a2.954,2.954,0,0,0,2.442,2.962,10.922,10.922,0,0,0,5.3.112,3.129,3.129,0,0,0,2.7-3.358C95.856,13.6,95.823,12.157,95.823,10.718Z" style="fill:#fff"/><path d="M140.523,10.68c0,1.276.033,2.553-.007,3.828-.111,3.592-1.9,5.732-5.41,6.36a15.634,15.634,0,0,1-6.681-.247c-2.582-.66-4.183-2.324-4.325-4.952a84.485,84.485,0,0,1,.012-10.077c.2-2.99,2.043-4.67,5.023-5.243a14.824,14.824,0,0,1,6.047-.028c3.473.764,5.206,2.825,5.326,6.368.046,1.329.008,2.661.008,3.991Zm-2.906-.041-.088,0V6.484c0-.054,0-.108,0-.162-.044-1.919-.925-3.247-2.8-3.545A16.518,16.518,0,0,0,130,2.772a3.157,3.157,0,0,0-2.946,3.244c-.083,2.952-.119,5.908-.072,8.861a3.186,3.186,0,0,0,2.315,3.347,10.714,10.714,0,0,0,5.995.029,2.591,2.591,0,0,0,2.055-2.271C137.512,14.209,137.533,12.421,137.617,10.639Z" style="fill:#fff"/><path d="M105.147.382c3.089,0,6.138-.17,9.158.048,2.954.213,4.351,2.155,4.59,5.088a14.619,14.619,0,0,1-.316,4.262,4.448,4.448,0,0,1-4.432,3.5c-1.681.048-3.364.056-5.045.079-.292.005-.584,0-.979,0V20.7h-2.976Zm3,10.618c1.767,0,3.473.02,5.178-.007a2.241,2.241,0,0,0,2.43-1.945,9.408,9.408,0,0,0-.111-4.672,2.04,2.04,0,0,0-1.8-1.666c-1.884-.1-3.778-.03-5.7-.03Z" style="fill:#fff"/><path d="M38.327,2.646H28.632v6.4c.257.012.516.035.776.036,2.283,0,4.565.03,6.847-.015.761-.015,1.122.172,1.011.988a10.087,10.087,0,0,0-.008,1.242H28.647v7.173H38.5V20.7H25.669V.409H38.327Z" style="fill:#fff"/><path d="M192.465,3.872A11.819,11.819,0,0,0,186.241,2.5a9.969,9.969,0,0,0-1.767.225c-1.358.319-2.013,1.029-2.076,2.153-.1,1.727.283,2.4,1.8,2.948,2.009.73,4.058,1.351,6.05,2.123,2.931,1.137,3.3,2.926,3.266,5.281-.051,3.736-2.113,5.451-5.23,5.763a15.083,15.083,0,0,1-9.23-1.855l1.029-2.274c.3.125.549.212.782.327a13.675,13.675,0,0,0,6.6,1.439,3.453,3.453,0,0,0,3.07-4.923,3.384,3.384,0,0,0-1.694-1.38c-1.575-.648-3.218-1.127-4.833-1.677-.434-.147-.859-.321-1.3-.455C178.4,8.874,178.781,3.2,181.244,1.4A6.97,6.97,0,0,1,184.87.121a15.4,15.4,0,0,1,7.724,1.033c.55.244.657.54.436,1.068C192.824,2.717,192.679,3.237,192.465,3.872Z" style="fill:#fff"/><path d="M173.866,20.718H163.274c-.047-.069-.1-.111-.1-.156-.151-2.093-.151-2.093,1.947-2.093h1.809V2.64c-1.078,0-2.107-.018-3.134.007-.491.012-.69-.157-.655-.66s.008-1.02.008-1.576h10.719c0,.549-.022,1.058.006,1.564s-.183.679-.668.67c-1.03-.019-2.06-.006-3.161-.006v15.83c.975,0,1.97.038,2.96-.013.684-.034.938.207.871.881C173.832,19.763,173.866,20.2,173.866,20.718Z" style="fill:#fff"/><path d="M50.832,20.711H47.854V2.857h-5.81V.419H56.581V2.778H50.832Z" style="fill:#fff"/><path d="M149.734,18.474h9.079V20.68H146.858V.4h2.876Z" style="fill:#fff"/></svg>