<?xml version="1.0" encoding="UTF-8"?>
<svg width="661px" height="144px" viewBox="0 0 661 144" version="1.1" xmlns="http://www.w3.org/2000/svg" xmlns:xlink="http://www.w3.org/1999/xlink">
    <!-- Generator: Sketch 46.2 (44496) - http://www.bohemiancoding.com/sketch -->
    <title>Page 1 Copy 2</title>
    <desc>Created with Sketch.</desc>
    <defs>
        <polygon id="path-1" points="130 144 0 144 0 72.0218154 0 0.0436308298 130 0.0436308298"></polygon>
    </defs>
    <g id="mocks" stroke="none" stroke-width="1" fill="none" fill-rule="evenodd">
        <g id="Desktop-Copy-2" transform="translate(-180.000000, -2217.000000)">
            <g id="Page-1-Copy-2" transform="translate(180.000000, 2217.000000)">
                <path d="M189.145918,57.7964853 C184.271614,57.7964853 180.243305,59.6109613 177.06099,63.2399132 C174.37709,66.3143509 173.034321,70.1090009 173.034321,74.6238634 C173.034321,79.4701221 174.65253,83.4747657 177.893868,86.6328727 C181.048311,89.7335595 184.771669,91.2855435 189.062302,91.2855435 C193.739862,91.2855435 197.6698,89.5137224 200.855394,85.9667992 C203.650782,82.8923616 205.047655,79.1813809 205.047655,74.8305759 C205.047655,69.5134722 203.304842,65.2348525 199.815936,61.9930762 C196.799213,59.1958958 193.241447,57.7964853 189.145918,57.7964853 M189.683681,45 C198.402667,45 205.655919,48.1433418 211.443436,54.4316659 C216.480052,59.8882184 219,66.6326224 219,74.6665184 C219,79.6522259 217.712974,84.4443456 215.138922,89.0412368 C212.286151,94.1106137 208.356214,97.9758085 203.34583,100.635181 C199.083069,102.877847 194.418625,104 189.352498,104 C183.981419,104 178.998907,102.753163 174.404962,100.259489 C169.171603,97.4344187 165.187561,93.5019603 162.446278,88.4604733 C160.147666,84.1933376 159,79.6243361 159,74.7485471 C159,66.2175569 162.169199,58.9465284 168.507596,52.9354614 C174.098371,47.6462475 181.158159,45 189.683681,45" id="Fill-1" fill="#fff"></path>
                <path d="M246.918282,73.5772635 L250.775275,73.5772635 C252.788194,73.5772635 254.450178,73.251779 255.764535,72.5991322 C258.504159,71.2116286 259.871487,68.8896153 259.871487,65.6314145 C259.871487,63.1953139 259.124919,61.24744 257.630128,59.7877929 C256.133681,58.3298235 254.155523,57.6 251.698966,57.6 L246.918282,57.6 L246.918282,73.5772635 Z M246.918282,85.1353196 L246.918282,104 L233,104 L233,46 L252.703771,46 C259.578488,46 264.902132,47.7280879 268.676357,51.1842638 C272.225452,54.4424646 274,59.0730691 274,65.079433 C274,68.6765404 273.24681,72.0052068 271.73712,75.0637547 C269.921189,78.7749494 267.181565,81.4526468 263.519905,83.0934915 C260.50218,84.454151 257.16166,85.1353196 253.5,85.1353196 L246.918282,85.1353196 Z" id="Fill-3" fill="#fff"></path>
                <polygon id="Fill-5" fill="#fff" points="301.010503 57.3882734 301.010503 69.2429493 320 69.2429493 320 80.629545 301.010503 80.629545 301.010503 92.6134043 320 92.6134043 320 104 287 104 287 46 320 46 320 57.3882734"></polygon>
                <polygon id="Fill-7" fill="#fff" points="350.999524 70.9851316 350.999524 104 337 104 337 46 350.999524 46 372.000476 78.5920741 372.000476 46 386 46 386 104 372.000476 104"></polygon>
                <path d="M402,85.6653125 L415.666667,85.6653125 C415.63844,86.0527575 415.625157,86.3712505 415.625157,86.6207914 C415.625157,88.0343091 416.297615,89.2541043 417.644191,90.280177 C418.989106,91.3062497 420.586401,91.8184651 422.437735,91.8184651 C424.11971,91.8184651 425.52772,91.3817686 426.663427,90.5067338 C427.799133,89.6349825 428.366987,88.5613 428.366987,87.2856865 C428.366987,85.9558963 427.834002,84.8953475 426.768031,84.105682 C425.702061,83.3143748 423.475479,82.3244198 420.083303,81.1308921 C414.587413,79.164116 410.409873,76.959291 407.552343,74.5213423 C404.21496,71.6943069 402.547929,67.7722466 402.547929,62.75352 C402.547929,57.2110858 404.454056,52.8457621 408.26631,49.6575491 C411.995545,46.5530636 416.717693,45 422.437735,45 C427.988418,45 432.586037,46.4841115 436.230592,49.4490511 C439.901713,52.4435417 442.144899,56.920502 442.95849,62.8799321 L428.743895,62.8799321 C428.323816,59.0826423 426.193537,57.1831766 422.353056,57.1831766 C420.305795,57.1831766 418.79318,57.7101675 417.81189,58.7625077 C417.026526,59.5948578 416.633013,60.5651121 416.633013,61.6732706 C416.633013,63.3642384 417.518001,64.7367132 419.282995,65.7906951 C420.153039,66.3160443 422.338112,67.2452557 425.843194,68.5750459 C431.730936,70.7371863 435.837079,72.8730592 438.164946,74.9777394 C441.389422,77.8901441 443,81.6857922 443,86.3712505 C443,92.5818632 440.562548,97.2640381 435.682663,100.424342 C431.983315,102.808114 427.566679,104 422.437735,104 C416.437087,104 411.615316,102.489621 407.972421,99.468863 C403.990807,96.1148367 402,91.5147476 402,85.6653125" id="Fill-9" fill="#fff"></path>
                <path d="M471.91772,73.5772635 L475.774557,73.5772635 C477.787396,73.5772635 479.450967,73.251779 480.765271,72.5991322 C483.503129,71.2116286 484.872058,68.8896153 484.872058,65.6314145 C484.872058,63.1953139 484.123865,61.24744 482.630788,59.7877929 C481.132747,58.3298235 479.156324,57.6 476.698211,57.6 L471.91772,57.6 L471.91772,73.5772635 Z M471.91772,85.1353196 L471.91772,104 L458,104 L458,46 L477.702975,46 C484.579071,46 489.902499,47.7280879 493.676572,51.1842638 C497.225524,54.4424646 499,59.0730691 499,65.079433 C499,68.6765404 498.245186,72.0052068 496.735557,75.0637547 C494.919698,78.7749494 492.180185,81.4526468 488.518673,83.0934915 C485.50107,84.454151 482.160685,85.1353196 478.500828,85.1353196 L471.91772,85.1353196 Z" id="Fill-11" fill="#fff"></path>
                <path d="M536.932777,84.199705 L530.271491,62.6143299 L523.651303,84.199705 L536.932777,84.199705 Z M540.390005,95.5863007 L520.238462,95.5863007 L517.739658,104 L503,104 L521.7772,46 L539.304998,46 L558,104 L542.846066,104 L540.390005,95.5863007 Z" id="Fill-13" fill="#fff"></path>
                <path d="M607.079361,86.3285659 L615.327089,95.9342479 C612.298159,98.4559241 609.491872,100.271662 606.911549,101.379821 C602.927252,103.126607 598.565792,104 593.823848,104 C585.042776,104 578.03121,101.131922 572.784167,95.3924815 C569.894804,92.2600868 567.778042,88.5186154 566.430559,84.1680672 C565.476853,81.0635817 565,77.8753687 565,74.6034281 C565,68.9493572 566.360775,63.6958651 569.082326,58.8462352 C571.860368,53.911236 575.701776,50.2387167 580.611533,47.8270354 C584.482847,45.9423451 589.028734,45 594.244209,45 C598.705359,45 602.604919,45.6648951 605.94289,46.996327 C609.28086,48.3261172 612.635446,50.5440759 616,53.6485614 L607.079361,62.8372475 C603.124971,59.4553119 599.0144,57.7643441 594.750969,57.7643441 C589.925949,57.7643441 586.067926,59.3863598 583.178563,62.6287495 C580.485258,65.6790584 579.139436,69.5453002 579.139436,74.2307585 C579.139436,77.7505983 579.98016,80.9388113 581.663268,83.7921142 C583.037335,86.1200679 584.946408,87.9358061 587.385503,89.2393288 C589.88275,90.5707608 592.619254,91.2340141 595.591692,91.2340141 C598.03411,91.2340141 600.172471,90.8400022 602.008438,90.0519784 C603.846066,89.2590294 605.53582,88.0195336 607.079361,86.3285659" id="Fill-15" fill="#fff"></path>
                <polygon id="Fill-17" fill="#fff" points="642.010503 57.3882734 642.010503 69.2429493 661 69.2429493 661 80.629545 642.010503 80.629545 642.010503 92.6134043 661 92.6134043 661 104 628 104 628 46 661 46 661 57.3882734"></polygon>
                <path d="M43.65327,39.1495217 L26.017301,48.0989321 C25.4112142,48.3739926 25.0264234,48.9837655 25.0379836,49.649876 L25,92.8625538 C25.0099088,93.4806116 25.3600188,94.0390177 25.906653,94.3190492 L43.4930781,102.816101 C44.5979066,103.381135 45.9091679,102.575837 45.9108194,101.331437 L45.9999984,40.6722968 C46.0016498,39.4610361 44.7547956,38.6507673 43.65327,39.1495217" id="Fill-19" fill="#fff"></path>
                <g id="Group-23">
                    <mask id="mask-2" fill="white">
                        <use xlink:href="#path-1"></use>
                    </mask>
                    <g id="Clip-22"></g>
                    <path d="M57.9701266,55.6106483 L57.838481,121.067752 C57.8351899,122.310786 56.5302532,123.113545 55.4293671,122.549131 L15.3021519,102.314648 C14.7558228,102.034924 14.4086076,101.475476 14.3970886,100.859752 L14.2818987,41.3215448 C14.2703797,40.6545103 14.6537975,40.0454069 15.2577215,39.7723034 L55.6317722,20.2545103 C56.7293671,19.7579586 57.9701266,20.5640276 57.9701266,21.7739586 L57.9701266,55.6106483 Z M123.161013,25.3822345 L68.7732911,1.04457931 C65.7503797,-0.309351724 62.2946835,-0.287834483 59.2865823,1.09754483 L6.72050633,25.3425103 C2.62468354,27.2310621 0,31.3474759 0,35.8793379 L0,102.789683 C0,107.015338 2.2856962,110.904993 5.96518987,112.944166 L59.4544304,142.561821 C62.7686076,144.399062 66.7640506,144.480166 70.1489873,142.785269 L123.613544,116.001269 C127.526709,114.041545 130,110.022786 130,105.626648 L130,35.9720276 C130,31.3921655 127.319367,27.2426483 123.161013,25.3822345 L123.161013,25.3822345 Z" id="Fill-21" fill="#fff" mask="url(#mask-2)"></path>
                </g>
            </g>
        </g>
    </g>
</svg>