<?xml version="1.0" encoding="utf-8"?>
<!-- Generator: Adobe Illustrator 24.1.1, SVG Export Plug-In . SVG Version: 6.00 Build 0)  -->
<svg version="1.1" id="Layer_1" xmlns="http://www.w3.org/2000/svg" xmlns:xlink="http://www.w3.org/1999/xlink" x="0px" y="0px"
	 viewBox="0 0 180 45" style="enable-background:new 0 0 180 45;" xml:space="preserve">
<style type="text/css">
	.st0{fill:#FFFFFF;}
	.st1{fill-rule:evenodd;clip-rule:evenodd;fill:#FFFFFF;}
	.st2{fill-rule:evenodd;clip-rule:evenodd;fill:#0B0E17;}
	.st3{fill-rule:evenodd;clip-rule:evenodd;fill:#0D0F1E;}
</style>
<g>
	<path class="st0" d="M63.6,15.8c2.7,0,4.8,2,4.8,4.6S66.3,25,63.6,25h-2.2v4.6h-2.8V15.8H63.6z M63.6,22.4c1.1,0,2-0.9,2-2
		s-0.8-2-2-2h-2.1v4L63.6,22.4L63.6,22.4z M80.4,24.5c0,0.3,0,0.6-0.1,0.9h-8.1c0.3,1.3,1.4,2.1,2.8,2.1c1.1,0,2.1-0.5,2.5-1.2h2.8
		c-0.7,2.1-2.8,3.5-5.3,3.5c-3.1,0-5.5-2.3-5.5-5.4s2.4-5.4,5.5-5.4C78,19.1,80.4,21.4,80.4,24.5L80.4,24.5z M74.9,21.4
		c-1.3,0-2.3,0.8-2.7,2.1h5.3C77.3,22.2,76.2,21.4,74.9,21.4z M90,19.4h2.6v10.2H90v-1.3c-0.8,1-1.9,1.6-3.3,1.6c-2.8,0-5-2.3-5-5.4
		s2.1-5.4,5-5.4c1.4,0,2.5,0.6,3.3,1.6V19.4z M87.1,27.3c1.6,0,2.8-1.2,2.8-2.8s-1.2-2.8-2.8-2.8c-1.6,0-2.8,1.2-2.8,2.8
		S85.5,27.3,87.1,27.3z M99.9,29.8c-3.1,0-5.5-2.3-5.5-5.4s2.4-5.4,5.5-5.4c2.8,0,5.1,1.9,5.4,4.6h-2.7c-0.3-1.2-1.4-2-2.7-2
		c-1.6,0-2.8,1.2-2.8,2.8s1.2,2.8,2.8,2.8c1.3,0,2.4-0.8,2.7-2h2.7C105,27.9,102.8,29.8,99.9,29.8z M113,19.1c2.4,0,4,1.6,4,4v6.5
		h-2.6v-5.6c0-1.4-0.9-2.3-2.2-2.3c-1.4,0-2.4,0.9-2.4,2.3v5.6h-2.6V15.2h2.6v5.6C110.5,19.7,111.7,19.1,113,19.1L113,19.1z
		 M128.1,29.8c-2.7,0-4.8-1.9-4.8-4.3h2.8c0,1,0.9,1.9,2,1.9c1.1,0,1.9-0.7,1.9-1.6c0-1-1.1-1.6-2.6-2c-2.1-0.5-3.9-1.7-3.9-4.3
		c0-2.3,2-4,4.5-4c2.6,0,4.6,1.8,4.6,4.1h-2.9c0-1-0.8-1.7-1.8-1.7c-1,0-1.7,0.6-1.7,1.4c0,1,0.9,1.6,2.4,1.9
		c2.2,0.6,4.1,1.6,4.1,4.3C132.9,28,130.8,29.8,128.1,29.8L128.1,29.8z M140.7,19.4v2.4h-2.1v7.8H136v-7.8h-2v-2.4h2v-2.4l2.6-0.6v3
		L140.7,19.4L140.7,19.4z M144.9,20.9c0.7-1,1.8-1.7,3-1.7v2.7c-1.9,0-3,1.1-3,2.8v4.9h-2.6V19.4h2.6V20.9z M159.9,24.5
		c0,0.3,0,0.6-0.1,0.9h-8.1c0.3,1.3,1.4,2.1,2.7,2.1c1.1,0,2.1-0.5,2.5-1.2h2.8c-0.7,2.1-2.8,3.5-5.3,3.5c-3.1,0-5.5-2.3-5.5-5.4
		s2.4-5.4,5.5-5.4C157.6,19.1,159.9,21.4,159.9,24.5L159.9,24.5z M154.5,21.4c-1.3,0-2.3,0.8-2.7,2.1h5.4
		C156.8,22.2,155.7,21.4,154.5,21.4L154.5,21.4z M172.1,24.5c0,0.3,0,0.6-0.1,0.9h-8.1c0.3,1.3,1.4,2.1,2.7,2.1
		c1.1,0,2.1-0.5,2.5-1.2h2.8c-0.7,2.1-2.8,3.5-5.3,3.5c-3.1,0-5.5-2.3-5.5-5.4s2.4-5.4,5.5-5.4S172.1,21.4,172.1,24.5L172.1,24.5z
		 M166.6,21.4c-1.3,0-2.3,0.8-2.7,2.1h5.4C169,22.2,167.9,21.4,166.6,21.4L166.6,21.4z M179.9,19.4v2.4h-2.1v7.8h-2.6v-7.8h-2v-2.4
		h2v-2.4l2.6-0.6v3L179.9,19.4L179.9,19.4z"/>
	<path class="st1" d="M7.7,0.5h28.6C40.5,0.5,44,4,44,8.2l0,0v28.6c0,4.3-3.5,7.7-7.7,7.7l0,0H7.7C3.5,44.5,0,41,0,36.8l0,0V8.2
		C0,4,3.5,0.5,7.7,0.5L7.7,0.5z"/>
	<path class="st2" d="M10.6,10.6l8.9,2.4v8.7l-8.9-2.4L10.6,10.6z"/>
	<path class="st2" d="M25.1,29.1v5.3l-3.7-1V17.8h3.7V29.1z"/>
	<path class="st3" d="M33.4,13.2v9.3l-12,3.2v-9.3L33.4,13.2z"/>
</g>
</svg>
