<svg fill="#fff" version="1.1" id="svg-logo-procore" xmlns="http://www.w3.org/2000/svg" xmlns:xlink="http://www.w3.org/1999/xlink" x="0px" y="0px" viewBox="0 0 108 13.1" style="transform: scale(.9);" xml:space="preserve" role="img" aria-label="Procore, Procore Full Logo">
    <title>Procore</title>
    <desc>Procore Full Logo</desc>
    <g>
      <path class="svg-fill-black" d="M59.5,3.1c0-1.2-0.2-2-0.7-2.5C58.3,0.2,57.5,0,56.2,0h-7.8c-1.3,0-2.1,0.2-2.6,0.6c-0.5,0.4-0.7,1.2-0.7,2.5
      V10c0,1.2,0.2,2,0.7,2.5c0.5,0.4,1.3,0.6,2.6,0.6h7.8c1.3,0,2.1-0.2,2.6-0.6c0.5-0.4,0.7-1.2,0.7-2.5V8.3h-3.3l-1.3,2.3h-4.8
      l-2.4-4.1l2.4-4.1l4.8,0l1.3,2.3h3.3V3.1z"></path>
      <path class="svg-fill-black" d="M44.2,8.3V10c0,1.2-0.2,2-0.7,2.5c-0.5,0.4-1.3,0.6-2.6,0.6h-7.8c-1.3,0-2.1-0.2-2.6-0.6
      c-0.5-0.4-0.7-1.2-0.7-2.5V3.1c0-1.2,0.2-2,0.7-2.5C31,0.2,31.8,0,33.1,0h7.8c1.3,0,2.1,0.2,2.6,0.6c0.5,0.4,0.7,1.2,0.7,2.5v1.5
      V8.3z M32.4,6.5l2.4,4.1h4.8l2.4-4.1l-2.4-4.1l-4.8,0L32.4,6.5z"></path>
      <path class="svg-fill-black" d="M74.7,8.3V10c0,1.2-0.2,2-0.7,2.5c-0.5,0.4-1.3,0.6-2.6,0.6h-7.8c-1.3,0-2.1-0.2-2.6-0.6
      c-0.5-0.4-0.7-1.2-0.7-2.5V3.1c0-1.2,0.2-2,0.7-2.5C61.6,0.2,62.4,0,63.7,0h7.8c1.3,0,2.1,0.2,2.6,0.6c0.5,0.4,0.7,1.2,0.7,2.5v1.5
      V8.3z M63,6.5l2.4,4.1h4.8l2.4-4.1l-2.4-4.1l-4.8,0L63,6.5z"></path>
      <polygon class="svg-fill-orange" points="49.8,6.5 51.1,8.8 53.8,8.8 55.1,6.5 53.8,4.2 51.1,4.2  "></polygon>
      <path class="svg-fill-black" d="M0,13.1V0h10.8c2.3,0,3.3,1.1,3.3,2.6v3c0,1.5-0.9,2.6-3.3,2.6H3.6v4.8H0z M9.4,2.9H3.6v2.5h5.8
      c0.4,0,0.7,0,0.8-0.1c0.2-0.1,0.3-0.3,0.3-0.6v-1c0-0.3-0.1-0.5-0.3-0.6C10.1,3,9.8,2.9,9.4,2.9z"></path>
      <path class="svg-fill-black" d="M14.8,13.1V0h10.8c2.3,0,3.3,1.1,3.3,2.6v3c0,1.5-0.9,2.6-3.3,2.6h-0.4l5.7,4.8h-5.3l-5.1-4.8h-2.1v4.8H14.8z
        M24.2,2.9h-5.8v2.5h5.8c0.4,0,0.7,0,0.8-0.1c0.2-0.1,0.3-0.3,0.3-0.6v-1c0-0.3-0.1-0.5-0.3-0.6C24.9,3,24.6,2.9,24.2,2.9z"></path>
      <path class="svg-fill-black" d="M75.8,13.1V0h10.8c2.3,0,3.3,1.1,3.3,2.6v3c0,1.5-0.9,2.6-3.3,2.6h-0.4l5.7,4.8h-5.3l-5.1-4.8h-2.1v4.8H75.8z
        M85.1,2.9h-5.8v2.5h5.8c0.4,0,0.7,0,0.8-0.1c0.2-0.1,0.3-0.3,0.3-0.6v-1c0-0.3-0.1-0.5-0.3-0.6C85.8,3,85.5,2.9,85.1,2.9z"></path>
      <path class="svg-fill-black" d="M90.8,13.1V0h13.4v2.9h-9.7v2h5.7v2.9h-5.7V10h9.9v3.1H90.8z"></path>
      <path class="svg-fill-black" d="M108,1.4c0,0.8-0.6,1.4-1.5,1.4c-0.8,0-1.5-0.6-1.5-1.4c0-0.8,0.7-1.4,1.5-1.4C107.4,0,108,0.6,108,1.4z
        M105.4,1.4c0,0.6,0.5,1.1,1.1,1.1c0.6,0,1.1-0.5,1.1-1.1c0-0.6-0.5-1.2-1.1-1.2C105.9,0.3,105.4,0.8,105.4,1.4z M106.3,2.2H106
      V0.7c0.1,0,0.3,0,0.5,0c0.3,0,0.4,0,0.5,0.1c0.1,0.1,0.1,0.2,0.1,0.3c0,0.2-0.1,0.3-0.3,0.3v0c0.1,0.1,0.2,0.2,0.3,0.3
      c0,0.2,0.1,0.3,0.1,0.4h-0.4c0-0.1-0.1-0.2-0.1-0.3c0-0.2-0.1-0.2-0.3-0.2h-0.2V2.2z M106.3,1.4h0.2c0.2,0,0.3-0.1,0.3-0.2
      c0-0.1-0.1-0.2-0.3-0.2c-0.1,0-0.1,0-0.2,0V1.4z"></path>
    </g>
</svg>