<svg xmlns="http://www.w3.org/2000/svg" viewBox="0 0 86.746 27.416"><title>scythe</title><path d="M43.423,21.949H74.574c.087,0,.175,0,.261,0,.113.01.138.072.077.166-.029.043-.063.083-.1.123q-.963,1.175-1.929,2.347a.382.382,0,0,1-.186.09.665.665,0,0,1-.173,0H10.868a2.109,2.109,0,0,1-2.162-1.6,2.662,2.662,0,0,1,.027-1.3c.211-1.12.409-2.242.613-3.363.2-1.081.4-2.161.6-3.242s.388-2.164.585-3.245.4-2.162.594-3.243.384-2.164.588-3.244a9.322,9.322,0,0,1,.332-1.431A1.952,1.952,0,0,1,13.387,2.81a1.746,1.746,0,0,1,.508-.076q31.091,0,62.182,0A2.155,2.155,0,0,1,78.029,4.24a2.973,2.973,0,0,1-.018,1.437c-.186.977-.357,1.957-.535,2.936q-.258,1.416-.518,2.833-.262,1.443-.523,2.886c-.174.956-.352,1.911-.522,2.868a2.709,2.709,0,0,1-.331,1.015,2.128,2.128,0,0,1-1.892,1.033q-4.385.006-8.769,0H62.6c-.242,0-.26-.028-.218-.261.175-.956.346-1.912.52-2.868s.348-1.9.521-2.851.346-1.912.519-2.868c.122-.672.246-1.343.364-2.015a.235.235,0,0,1,.275-.231q3.638.009,7.275,0c.237,0,.259.021.218.248-.138.781-.282,1.56-.42,2.34-.022.125-.093.161-.206.161H70.7c-1.284,0-2.569,0-3.854,0-.185,0-.268.049-.292.242-.041.321-.115.638-.172.957-.036.206-.018.225.2.225q2.24,0,4.48,0c.282,0,.294.009.245.286-.137.769-.28,1.536-.416,2.3-.024.137-.106.162-.222.161H69.537c-1.152,0-2.3,0-3.456,0-.181,0-.255.054-.278.238-.039.315-.105.627-.165.94-.043.227-.036.242.191.243H72.74c.448,0,.575-.1.655-.54q.451-2.475.9-4.95.436-2.389.876-4.779a2.126,2.126,0,0,0,.029-.223.487.487,0,0,0-.458-.546c-.069-.006-.139,0-.209,0H15.043c-.491,0-.623.124-.709.612-.191,1.076-.392,2.151-.588,3.226s-.392,2.163-.588,3.245q-.256,1.416-.516,2.834-.264,1.451-.526,2.9L11.6,21.11c-.012.063-.026.125-.035.188-.058.429.133.651.567.651H43.423Z" style="fill:#fff"/><path d="M21.531,8.159h3.125c.235,0,.24.009.2.235-.144.767-.29,1.534-.422,2.3-.03.172-.1.213-.264.213q-2.353-.006-4.706,0c-.075,0-.151,0-.226,0a.391.391,0,0,0-.4.323c-.046.185-.082.374-.111.562a.417.417,0,0,0,.451.53c.775,0,1.551,0,2.327,0a2.12,2.12,0,0,1,2.1,1.548,1.968,1.968,0,0,1,.073.837c-.145.949-.318,1.894-.509,2.835a2.111,2.111,0,0,1-2.073,1.7c-2.084.007-4.167,0-6.251,0-.147,0-.212-.032-.18-.2.151-.8.293-1.6.435-2.407.023-.131.105-.147.214-.147.665,0,1.331,0,2,0h2.865a.459.459,0,0,0,.54-.455c.024-.142.055-.284.074-.427a.419.419,0,0,0-.464-.534c-.77,0-1.54,0-2.309,0A2.147,2.147,0,0,1,15.9,13.519a2.246,2.246,0,0,1-.03-1.1c.162-.87.31-1.743.484-2.61A2.146,2.146,0,0,1,18.44,8.159h3.091Z" style="fill:#fff"/><path d="M56.965,15.08c-.463,0-.926.006-1.389,0-.159,0-.222.053-.25.209-.223,1.259-.457,2.515-.681,3.774-.025.143-.083.193-.226.192q-1.173-.007-2.344,0c-.147,0-.2-.045-.168-.2.156-.841.305-1.684.458-2.526q.262-1.452.527-2.9l.519-2.851c.148-.808.3-1.615.44-2.424.024-.141.076-.2.223-.2q1.171.007,2.344,0c.157,0,.2.049.172.207-.209,1.126-.411,2.253-.616,3.38-.024.13-.04.263-.073.392-.038.145,0,.2.157.2.526-.006,1.053,0,1.579,0,.423,0,.846,0,1.268,0a.185.185,0,0,0,.218-.182q.287-1.6.578-3.21c.037-.205.084-.408.114-.614.019-.132.085-.169.211-.168q1.181.006,2.361,0c.141,0,.188.05.163.187-.083.449-.163.9-.244,1.348q-.261,1.434-.522,2.868t-.521,2.868L60.741,18.3c-.048.268-.1.535-.143.8a.158.158,0,0,1-.175.152H57.992c-.111,0-.156-.046-.134-.162q.242-1.323.48-2.646c.073-.4.145-.809.225-1.211.03-.15-.057-.15-.157-.15Z" style="fill:#fff"/><path d="M29.379,19.25c-.706,0-1.412,0-2.118,0a2.147,2.147,0,0,1-2.055-1.407,2.222,2.222,0,0,1-.086-1.214q.47-2.577.945-5.154c.111-.6.193-1.214.353-1.8a2.084,2.084,0,0,1,2.007-1.51c1.365-.009,2.731,0,4.1,0a.24.24,0,0,1,.247.169c.357.79.721,1.578,1.081,2.367.088.193.072.216-.141.216q-2.153,0-4.306,0a.6.6,0,0,0-.319.046.586.586,0,0,0-.235.316c-.148.714-.273,1.432-.4,2.149-.151.83-.3,1.662-.453,2.492-.069.372.092.584.471.584h3.612c.265,0,.262,0,.214.265-.142.762-.283,1.524-.414,2.288-.029.164-.1.2-.256.2C30.872,19.246,30.125,19.25,29.379,19.25Z" style="fill:#fff"/><path d="M38.924,10.762c.085-.1.142-.163.2-.229.606-.738,1.213-1.474,1.814-2.215a.393.393,0,0,1,.338-.163c.932.006,1.864,0,2.8,0,.061,0,.122.006.227.011-.06.09-.094.152-.138.206q-2.118,2.583-4.24,5.162a1,1,0,0,0-.216.481c-.223,1.246-.452,2.492-.678,3.737-.078.433-.159.865-.229,1.3-.023.14-.08.2-.226.2q-1.181-.006-2.361,0c-.149,0-.187-.05-.159-.2q.408-2.217.806-4.437c.043-.239.1-.476.127-.717a.645.645,0,0,0-.048-.331q-1.176-2.58-2.364-5.154c-.014-.031-.026-.065-.042-.1-.061-.115-.019-.16.1-.159.983,0,1.967,0,2.951,0,.134,0,.177.085.221.182q.5,1.079.992,2.159C38.827,10.574,38.867,10.648,38.924,10.762Z" style="fill:#fff"/><path d="M43.874,10.892c.067-.094.1-.146.137-.193.649-.793,1.3-1.583,1.944-2.379a.409.409,0,0,1,.355-.165c1.852.005,3.7,0,5.556,0,.25,0,.254,0,.208.257-.139.769-.283,1.536-.415,2.306-.025.147-.091.19-.23.189-.672,0-1.343,0-2.014,0-.151,0-.215.045-.241.2-.144.82-.3,1.639-.446,2.458l-.519,2.868q-.231,1.272-.46,2.544c-.049.271-.05.278-.331.278H45.2c-.228,0-.241-.021-.2-.238q.306-1.673.609-3.345.3-1.621.594-3.243c.079-.432.159-.864.232-1.3.036-.213.03-.216-.183-.217H44.128C44.061,10.909,44,10.9,43.874,10.892Z" style="fill:#fff"/><rect width="86.746" height="27.416" style="fill:none"/></svg>