<?xml version="1.0" encoding="utf-8"?>
<!-- Generator: Adobe Illustrator 24.1.1, SVG Export Plug-In . SVG Version: 6.00 Build 0)  -->
<svg version="1.1" id="Layer_1" xmlns="http://www.w3.org/2000/svg" xmlns:xlink="http://www.w3.org/1999/xlink" x="0px" y="0px"
	 viewBox="0 0 560 137" style="enable-background:new 0 0 560 137;" xml:space="preserve">
<style type="text/css">
	.st0{fill:#FFFFFF;}
	.st1{fill:none;stroke:#FFFFFF;stroke-width:2;stroke-linecap:round;stroke-linejoin:round;stroke-miterlimit:10;}
</style>
<g>
	<path class="st0" d="M187.14,50.73c7.65,0,14.97-0.13,22.28,0.03c9.39,0.21,18.86-0.03,28.13,1.17
		C253.48,54,263.06,66.5,261.91,82.4c-0.16,2.2-0.43,4.39-0.77,6.56c-1.35,8.4-6.56,13.97-13.55,18.22
		c-1.06,0.64-2.12,1.27-3.17,1.92c-0.1,0.06-0.12,0.23-0.44,0.85c6.47,7.64,13.09,15.46,20.31,23.99c-7.28,0-13.87,0.8-20.09-0.35
		c-2.96-0.55-5.24-4.79-7.79-7.39c-0.58-0.59-1.16-1.25-1.49-1.98c-6.09-13.54-17.54-13.17-30.3-11.07c0,5.14-0.23,10.59,0.08,16.01
		c0.22,3.83-1.06,5.15-4.89,4.88c-4.1-0.29-8.25-0.07-12.67-0.07C187.14,106.16,187.14,78.82,187.14,50.73z M204.87,99.03
		c5.81,0,11.04-0.04,16.27,0.01c6.25,0.06,11.9-1.5,17.07-5.21c6.67-4.79,6.77-19.24,0.21-24.18c-10.45-7.86-22.23-3.53-33.55-4.84
		C204.87,76.58,204.87,87.53,204.87,99.03z"/>
	<path class="st0" d="M508.54,86.72c13.4,0,26.5,0,39.86,0c0,4.72,0,9.06,0,13.78c-13.39,0-26.49,0-39.9,0c0,6.48,0,12.59,0,19.16
		c16.95,0,33.77,0,50.87,0c0,4.79,0,9.13,0,13.95c-1.42,0.12-2.87,0.35-4.32,0.36c-19.8,0.02-39.61-0.05-59.41,0.08
		c-3.48,0.02-4.78-0.76-4.76-4.56c0.17-24.81,0.16-49.63,0.01-74.44c-0.02-3.53,1.15-4.4,4.51-4.37c19.11,0.13,38.22,0.14,57.33,0
		c3.47-0.03,4.69,1.05,4.4,4.48c-0.27,3.11-0.06,6.26-0.06,9.74c-16.43,0-32.3,0-48.53,0C508.54,72.18,508.54,79.11,508.54,86.72z"
		/>
	<path class="st0" d="M112.56,112.43c0,7.31,0,14.02,0,21.13c-6.03,0-11.71,0-17.64,0c0-27.53,0-54.87,0-82.02
		c0.32-0.27,0.42-0.43,0.52-0.43c16.15,0.27,32.44-0.7,48.39,1.2c15.63,1.85,24.13,15.32,22.53,31.38c-0.2,2.05-0.46,4.11-0.9,6.13
		c-2.63,12.15-10.9,18.8-24.53,21.32c-7.27,1.34-14.87,0.94-22.32,1.28C116.71,112.51,114.81,112.43,112.56,112.43z M112.7,98.82
		c9.32,0.06,18.17,1.15,26.61-2.65c5.71-2.57,8.14-7.21,8.45-13.12c0.34-6.45-1.3-12.41-7.44-15.47c-8.78-4.39-18.28-2.4-27.62-2.46
		C112.7,76.55,112.7,87.41,112.7,98.82z"/>
	<path class="st0" d="M283.86,50.81c4.84,0,9.79-0.16,14.7,0.17c0.78,0.05,1.99,2.31,2.01,3.56c0.15,13.1,0.06,26.19,0.13,39.29
		c0.02,3.02,0.23,6.06,0.64,9.06c1.09,8.14,6.85,14.35,14.94,16.17c7.59,1.7,15.04,1.03,21.58-3.24c6.13-4,7.6-10.67,7.69-17.46
		c0.19-14.2,0.07-28.4,0.08-42.6c0-1.48,0-2.96,0-4.94c5.42,0,10.37-0.1,15.3,0.11c0.69,0.03,1.88,1.58,1.89,2.43
		c0.05,17.51,0.69,35.06-0.34,52.51c-0.9,15.4-14.13,26.5-31.16,28.58c-9.25,1.13-18.27,0.45-26.99-2.72
		c-9.9-3.59-20.81-14.86-20.89-29.15c-0.1-16.68-0.03-33.36-0.02-50.05C283.4,52.15,283.6,51.76,283.86,50.81z"/>
	<path class="st0" d="M0.36,127.46c1.84-3.87,3.45-6.92,4.74-10.1c1.05-2.6,2.56-2.8,4.86-1.73c10.05,4.7,20.76,5.67,31.63,4.93
		c3.05-0.21,6.37-1.16,8.92-2.78c5.01-3.16,4.9-10.3-0.4-12.91c-4.87-2.4-10.34-3.71-15.64-5.13c-8.65-2.33-17.45-3.89-25.1-9.21
		c-5.06-3.52-7.38-8.07-7.81-13.76C0.59,63.76,7.44,55.36,21.28,51.56c16.04-4.4,31.74-0.94,47,4.58c-0.08,0.66-0.04,0.96-0.16,1.18
		c-2,3.77-3.15,9.11-6.28,10.81c-2.71,1.46-7.67-1.27-11.65-2.07c-8.28-1.66-16.53-3.5-24.93-0.38c-3.52,1.31-5.57,3.57-5.74,7.25
		c-0.18,3.78,1.81,6.28,5.39,7.37c5.53,1.69,11.12,3.2,16.66,4.85c5.82,1.73,11.76,3.15,17.37,5.4c9.23,3.7,13.39,10.83,12.99,20.9
		c-0.35,8.96-6.43,17.26-14.77,20.17c-15.37,5.36-30.73,4.44-46.04-0.17C7.6,130.39,4.2,128.9,0.36,127.46z"/>
	<path class="st0" d="M469.85,64.64c-5.49,4.56-9.6,7.97-13.91,11.55c-7.58-7.33-16.11-11.87-26.85-10.56
		c-7.02,0.86-13.67,2.83-18.34,8.47c-10.1,12.2-10.31,24.82,0.26,36.7c10.96,12.32,28.73,11.33,45.13-1.98
		c4.05,3.35,8.16,6.76,12.65,10.47c-4.26,5.03-9.12,8.8-14.89,11.17c-18.06,7.43-35.43,5.89-51.63-5.06
		c-3.46-2.34-6.49-5.67-8.94-9.09c-6.41-8.93-10.8-18.78-8.12-30.03c3.13-13.2,10.3-23.51,22.61-30.36
		c17.52-9.74,42.07-7.63,57.08,5.56C466.21,62.64,467.9,63.41,469.85,64.64z"/>
	<path class="st0" d="M362.7,32.5c-12-5.9-23.13-11.07-33.93-16.86c-3.96-2.13-7.05-1.96-10.76-0.02
		c-8.93,4.66-17.96,9.14-26.97,13.63c-2.19,1.09-4.48,1.98-7.27,3.2c0-4.74-0.18-8.98,0.12-13.19c0.08-1.16,1.38-2.66,2.52-3.24
		c10.58-5.38,21.27-10.54,31.86-15.89c3.58-1.81,6.64-1.94,10.42,0.09c9.84,5.28,19.94,10.11,30.06,14.86
		c3.14,1.47,4.26,3.41,4,6.74C362.49,25.13,362.7,28.47,362.7,32.5z"/>
	<path class="st1" d="M263.6,134.13c-1.66-0.97-3.32-1.93-4.99-2.9"/>
	<path class="st1" d="M456,73.31c-0.14,0.97-0.28,1.93-0.42,2.9"/>
</g>
</svg>
