<svg xmlns="http://www.w3.org/2000/svg" viewBox="0 0 90.11 31.804"><title>tend</title><path d="M62.944,23.111c-2.3,0-4.585-1.718-4.585-5.954,0-2.735,1.763-4.88,3.936-4.88,1.569,0,3.36.658,3.983,2.206.011,1.752.025,3.7.038,5.272a3.552,3.552,0,0,1-3.373,3.356Zm6.707-.071c0-.1-.088-.139-.179-.179a2.778,2.778,0,0,1-.568-.306,1.119,1.119,0,0,1-.378-.9l0-14.172c0-.562-.258-.594-.831-.4,0,0-2.345.78-2.395.8s-.179.072-.179.193v.384c0,.1.088.138.179.179A3.144,3.144,0,0,1,65.86,9a1.112,1.112,0,0,1,.392.9l.017,2.917a5.367,5.367,0,0,0-3.84-1.393,6.338,6.338,0,0,0-6.329,6.6c0,4.183,2.887,6.811,6.385,6.811a4.7,4.7,0,0,0,3.978-2.484v1.938c0,.568.241.672.752.4,0,0,2.218-1.049,2.26-1.07s.18-.094.18-.192V23.04ZM29.235,21.759a2.3,2.3,0,0,1-1.99,1.595c-.993,0-1.69-1.078-1.69-2.554V12.755h4.086a.178.178,0,0,0,.179-.179v-.713a.182.182,0,0,0-.052-.127.189.189,0,0,0-.127-.053H25.555l-.022-2.9a.179.179,0,0,0-.179-.179h-.8a.18.18,0,0,0-.069.013.185.185,0,0,0-.058.039.174.174,0,0,0-.039.058.18.18,0,0,0-.013.069v.44c-.058,1.984-2.074,2.463-3.343,2.463H19.841a.182.182,0,0,0-.069.015.165.165,0,0,0-.058.039.178.178,0,0,0-.052.128v.713a.178.178,0,0,0,.179.179h3.3v8.018c0,2.736,1.395,4.049,3.46,4.049a3.406,3.406,0,0,0,3.345-2.811c.17-.638-.562-.7-.709-.253Zm26.5,1.8a1.112,1.112,0,0,1-.61-.219.971.971,0,0,1-.276-.712V17.347c0-4.186-2.661-5.926-5.289-5.926a4.617,4.617,0,0,0-4.183,2.467V11.93c0-.568-.227-.641-.752-.4,0,0-2.221,1.047-2.261,1.068s-.179.094-.179.192v.384c0,.1.088.14.179.179a2.744,2.744,0,0,1,.567.306,1.13,1.13,0,0,1,.381.9v8.126a.927.927,0,0,1-.309.714,1.024,1.024,0,0,1-.561.164.179.179,0,0,0-.179.179v.668a.181.181,0,0,0,.179.179H46.54a.18.18,0,0,0,.069-.013.191.191,0,0,0,.058-.039.179.179,0,0,0,.039-.059.176.176,0,0,0,.014-.068v-.668a.189.189,0,0,0-.053-.127.182.182,0,0,0-.127-.052,1.055,1.055,0,0,1-.654-.241.9.9,0,0,1-.238-.637V16.166A3.413,3.413,0,0,1,49,12.465c1.85,0,3.534,1.573,3.534,4.828v5.362a1.02,1.02,0,0,1-.2.646.75.75,0,0,1-.249.187.762.762,0,0,1-.3.072.179.179,0,0,0-.179.179v.668a.181.181,0,0,0,.179.179h3.958a.18.18,0,0,0,.069-.013.191.191,0,0,0,.058-.039.179.179,0,0,0,.039-.059.176.176,0,0,0,.014-.068v-.668a.185.185,0,0,0-.014-.069.167.167,0,0,0-.038-.058.174.174,0,0,0-.126-.052Zm-23.225-6.4a7.862,7.862,0,0,0,.245,1.876l5.822-2.959c.452-.259.645-.482.645-.938a3.1,3.1,0,0,0-3.046-2.858c-2.174,0-3.666,2.144-3.666,4.879Zm9.4,3.834a5.288,5.288,0,0,1-5.443,3.834c-3.46,0-6.222-2.629-6.222-6.811a6.336,6.336,0,0,1,6.328-6.6c3.218,0,4.9,2.033,4.9,3.662,0,.858-.462,1.142-1.26,1.583l-7.15,3.282A4.389,4.389,0,0,0,37.3,23.113a4,4,0,0,0,3.834-2.333.4.4,0,0,1,.778.212" style="fill:#fff"/><rect width="90.11" height="31.804" style="fill:none"/></svg>