<?xml version="1.0" encoding="utf-8"?>
<!-- Generator: Adobe Illustrator 22.0.1, SVG Export Plug-In . SVG Version: 6.00 Build 0)  -->
<svg version="1.1" id="icon-logo" xmlns="http://www.w3.org/2000/svg" xmlns:xlink="http://www.w3.org/1999/xlink" x="0px" y="0px"
	 viewBox="0 0 75 18" style="enable-background:new 0 0 75 18;" xml:space="preserve">
<style type="text/css">
	.st0{fill:#FFFFFF;}
	.st1{fill:none;}
</style>
<g>
	<path class="st0" d="M36,4.5l2,5.9l2-5.9h2l-2.9,8.1h-2.3l-2.9-8.1H36z M47.8,6.2h-2.7V4.5h7.5v1.7h-2.7v6.4h-2V6.2z M59.3,6.1
		c-0.8,0-1.3,0.3-1.3,0.8c0,0.4,0.4,0.7,1,0.8L60.1,8c1.4,0.3,3.1,0.7,3.1,2.5c0,1.8-1.8,2.8-3.6,2.8c-2.2,0-3.6-1.1-3.9-2.9h2
		c0.2,0.9,0.9,1.3,2,1.3c0.7,0,1.5-0.2,1.5-0.9c0-0.5-0.7-0.8-1.6-1l-1-0.2c-1.4-0.3-2.6-0.9-2.6-2.5c0-1.7,1.9-2.5,3.5-2.5
		c1.7,0,3.2,0.7,3.5,2.6h-2C60.7,6.4,60.1,6.1,59.3,6.1 M19.6,5.6l2.9,2l2.1-1.5l-5-3.5l0,0l-5,3.5l2.1,1.5L19.6,5.6L19.6,5.6z"/>
	<path class="st0" d="M19.9,11l-8.4-5.2v3.5l8.4,5.2l0,0l8.4-5.2V5.7L19.9,11L19.9,11z"/>
</g>
<rect y="0.1" class="st1" width="75" height="17.9"/>
</svg>
