<svg viewBox="0 0 75 18" id="icon-logo" version="1.1" xmlns="http://www.w3.org/2000/svg" xmlns:xlink="http://www.w3.org/1999/xlink"><g fill="#FFF" fill-rule="evenodd"><path d="M35.463 2.698l2.83 8.596 2.829-8.596h2.949L39.9 14.39h-3.388L32.378 2.698zM52.499 5.117h-3.931V2.698H59.36v2.42h-3.947v9.272h-2.914zM69.017 4.998c-1.117 0-1.945.42-1.945 1.175 0 .605.575 1.042 1.42 1.226l1.675.336c1.98.403 4.483 1.007 4.483 3.56 0 2.55-2.588 3.995-5.142 3.995-3.147 0-5.21-1.562-5.65-4.18h2.875c.322 1.275 1.337 1.863 2.842 1.863.981 0 2.098-.32 2.098-1.326 0-.79-.947-1.176-2.284-1.46L67.9 9.883c-1.996-.42-3.806-1.36-3.806-3.542 0-2.485 2.69-3.644 5.092-3.644 2.402 0 4.686 1.041 5.109 3.728h-2.86c-.287-.907-1.183-1.428-2.418-1.428M11.698 4.285l4.132 2.902 3.057-2.138L11.698 0l-.01.007-7.191 5.05 3.057 2.138 4.134-2.903z"></path><path d="M12.14 12.051L0 4.5v5.037l12.14 7.552.002-.002 12.142-7.552V4.497L12.142 12.05z"></path></g></svg>